<svg width="300" height="180" xmlns="http://www.w3.org/2000/svg">
<title>BankID (fake) Logotype</title>
<defs>
 <linearGradient id="bankPillar" x1="0" x2="1">
  <stop offset="0" stop-color="#707070"/>
  <stop offset="0.5" stop-color="#ffffff"/>
  <stop offset="1" stop-color="#707070"/>
 </linearGradient>
 <radialGradient id="dotGradient" spreadMethod="pad" cx="0.5" cy="0.5" r="0.5">
  <stop offset="0" stop-color="#f7d2d2"/>
  <stop offset="0.60419" stop-color="#f49797"/>
  <stop offset="1" stop-color="#bf0000"/>
 </radialGradient>
 <linearGradient id="cardBackground" x1="0" y1="0" x2="1" y2="1">
  <stop stop-color="#fcf299" offset="0"/>
  <stop stop-color="#fff9d3" offset="0.5"/>
  <stop stop-color="#fff7b2" offset="1"/>
 </linearGradient>
</defs>
<rect x="0" y="0" height="180" width="300" fill="url(#cardBackground)"/>
<text x="30" y="145" font-family="Sans-serif" font-size="20" stroke="null">@n</text>
<text x="30" y="165" font-family="Sans-serif" font-size="14" stroke="null">@i</text>
<g fill="#558ed5">
 <path d="m 197.86328,72.945312 -0.13672,0.136719 Q 196.37305,73 193.51562,73 q -2.92578,0 -4.21093,0.08203 l -0.12305,-0.123047 v -0.929687 l 0.13672,-0.136719 q 1.39453,-0.08203 1.59961,-0.136719 0.39648,-0.109375 0.46484,-0.505859 0.17774,-0.984375 0.17774,-4.238281 V 57.76953 l -3.04883,6.248047 q -0.25977,0.519531 -1.77735,3.828125 l -2.50195,5.46875 h -0.91601 q -0.71094,-1.695312 -1.92774,-4.279297 l -1.91406,-4.060547 -3.58203,-7.451172 v 9.488282 q 0,3.253906 0.17773,4.238281 0.0684,0.396484 0.46485,0.505859 0.20507,0.05469 1.59961,0.136719 l 0.13671,0.136719 v 0.929687 l -0.13671,0.123047 Q 176.5625,73 175.20898,73 q -1.57226,0 -3.1582,0.08203 l -0.13672,-0.123047 v -0.929687 l 0.13672,-0.136719 q 1.39453,-0.08203 1.59961,-0.136719 0.39648,-0.109375 0.46484,-0.505859 0.17774,-0.984375 0.17774,-4.238281 v -7.232422 q 0,-3.253906 -0.17774,-4.238281 -0.0684,-0.396485 -0.46484,-0.50586 -0.20508,-0.05469 -1.59961,-0.136719 l -0.13672,-0.136718 V 53.83203 l 0.13672,-0.123047 q 1.42188,0.08203 3.5957,0.08203 1.66797,0 2.91211,-0.08203 0.45118,1.039063 1.28516,2.925782 l 0.875,1.886718 4.34766,9.091797 2.09179,-4.238281 3.26758,-6.986328 Q 191,55.14453 191.54687,53.708983 q 1.54493,0.08203 2.07813,0.08203 2.67969,0 4.10156,-0.08203 l 0.13672,0.123047 v 0.94336 l -0.13672,0.123046 q -1.39453,0.08203 -1.59961,0.136719 -0.39648,0.109375 -0.46484,0.50586 -0.17774,0.984375 -0.17774,4.238281 v 7.232422 q 0,3.253906 0.17774,4.238281 0.0684,0.396484 0.46484,0.505859 0.20508,0.05469 1.59961,0.136719 l 0.13672,0.136719 z" />
 <path d="m 214.11914,61.064453 -0.12305,0.123047 q -0.90234,0 -1.23047,0.519531 -0.17773,0.300781 -0.9707,2.009766 -1.79101,3.896484 -2.9668,6.808594 l -2.20117,5.441406 q -1.02539,2.529297 -2.20117,3.595703 -1.10742,0.998047 -2.70703,0.998047 -1.01172,0 -1.95508,-0.478516 0.23242,-0.970703 0.47852,-2.720703 l 0.35547,-0.06836 q 0.71093,1.011718 1.92773,1.011718 1.43555,0 2.63867,-2.802734 l 0.56055,-1.3125 -4.42969,-11.511719 q -0.38281,-0.998047 -0.71094,-1.230468 -0.31445,-0.246094 -1.25781,-0.259766 l -0.13672,-0.136719 v -0.820312 l 0.15039,-0.136719 q 0.875,0.04102 3.34961,0.04102 2.29688,0 3.73242,-0.04102 l 0.13672,0.136719 v 0.820312 l -0.13672,0.136719 q -1.55859,0 -1.55859,0.560547 0,0.246094 0.13672,0.601562 0.21875,0.628907 0.66992,1.873047 l 1.9961,5.277344 1.20312,-2.884766 q 1.76367,-4.224609 1.76367,-4.935547 0,-0.492187 -1.58594,-0.492187 l -0.13671,-0.136719 v -0.820312 l 0.15039,-0.136719 q 0.79297,0.04102 2.67968,0.04102 1.06641,0 2.22852,-0.04102 l 0.15039,0.136719 z m -4.18359,13.001953 z m -3.15821,-14.984375 z" />
 <path d="m 231.3457,66.833984 q 0,3.431641 -3.32226,5.31836 -1.64063,0.929687 -4.22461,0.929687 -0.82031,0 -1.35352,-0.01367 L 219.17773,73 q -1.75,0 -2.70703,0.08203 l -0.13672,-0.136719 V 72.5625 l 0.0684,-0.164063 q 1.01172,-0.642578 1.09375,-0.80664 0.12305,-0.246094 0.15039,-1.81836 l 0.041,-3.0625 v -6.93164 q 0,-3.253906 -0.17773,-4.238281 -0.0684,-0.396485 -0.46485,-0.50586 -0.20508,-0.05469 -1.59961,-0.136719 l -0.13672,-0.136718 v -0.929688 l 0.13672,-0.123047 q 1.2168,0.08203 4.1836,0.08203 1.88671,0 3.40429,-0.06836 1.20313,-0.05469 2.03711,-0.05469 3.81446,0 5.00391,1.736328 0.6289,0.916015 0.6289,2.105469 0,1.941406 -1.51757,3.240234 -0.72461,0.615234 -1.50391,0.916016 -0.90234,0.341796 -1.96875,0.58789 5.63281,0.246094 5.63281,4.580078 z m -4.77148,-8.654297 q 0,-3.021484 -3.14453,-3.021484 -1.03907,0 -1.76367,0.109375 -0.0547,1.435547 -0.0547,2.652344 v 3.773437 q 0.31445,0.02734 1.25781,0.02734 2.47461,0 3.25391,-1.585937 0.45117,-0.916016 0.45117,-1.955079 z m 0.58789,9.078125 q 0,-4.101562 -4.30664,-4.101562 -0.54688,0 -1.24414,0.04102 v 6.330078 q 0,1.02539 0.0547,2.009765 0.56054,0.0957 1.57226,0.0957 1.91406,0 2.95313,-1.203125 0.9707,-1.148437 0.9707,-3.171875 z" />
 <path d="m 246.27539,72.917969 -0.15039,0.15039 Q 244.97656,73 243.48633,73 q -1.16211,0 -2.22852,0.06836 l -0.12304,-0.15039 0.12304,-1.832032 -2.65234,2.023438 q -0.31445,0.232422 -0.90235,0.287109 -0.23242,0.02734 -0.54687,0.02734 -1.51758,0 -2.33789,-0.916016 -0.80664,-0.916015 -0.80664,-2.529296 0,-2.132813 1.35351,-3.021485 1.46289,-0.970703 5.89258,-1.75 0,-2.173828 -1.14844,-2.912109 -0.69726,-0.451172 -1.66796,-0.451172 -1.06641,0 -1.68164,0.4375 l -0.51954,1.271484 -0.17773,0.0957 -0.69727,-0.164062 -0.0957,-0.191406 0.0684,-1.613282 q 2.25586,-1.667968 3.39063,-1.886718 0.47851,-0.0957 1.24414,-0.0957 2.69336,0 3.84179,1.408203 0.83399,1.02539 0.83399,3.144531 0,0.519531 -0.041,1.667969 -0.0684,1.914062 -0.0684,2.55664 0,2.064453 0.0684,2.638672 0.0684,0.560547 0.31445,0.710938 0.25977,0.15039 1.2168,0.177734 l 0.13672,0.150391 z m -5.01758,-3.185547 v -3.363281 q -2.25586,0.492187 -3.04883,1.066406 -0.77929,0.560547 -0.77929,1.722656 0,1.859375 1.62695,1.859375 1.38086,0 2.20117,-1.285156 z m -1.09375,-10.650391 z m 0,14.984375 z" />
 <path d="m 263.43359,72.945312 -0.13672,0.150391 Q 261.79297,73 260.75391,73 q -0.95704,0 -2.78907,0.0957 l -0.13672,-0.136719 q 0.2461,-3.048828 0.2461,-4.703125 v -2.679687 q 0,-3.335938 -2.40625,-3.335938 -1.25781,0 -1.96875,0.861328 -0.60156,0.72461 -0.60156,1.462891 v 2.556641 q 0,3.541015 0.17773,4.347656 0.10938,0.478516 1.58594,0.505859 l 0.13672,0.136719 v 0.833984 l -0.13672,0.136719 Q 253.69922,73 251.38867,73 q -2.44726,0 -3.73242,0.0957 l -0.13672,-0.136719 V 72.125 l 0.13672,-0.136719 q 1.3125,-0.04102 1.62695,-0.205078 0.27344,-0.123047 0.30078,-0.65625 0.0957,-1.777344 0.0957,-3.814453 v -1.955078 q 0,-2.734375 -0.20508,-3.144531 -0.13672,-0.273438 -0.58789,-0.341797 -0.16406,-0.02734 -1.18945,-0.06836 l -0.13672,-0.136718 V 60.900391 L 247.69727,60.75 q 2.46093,-0.232422 5.18164,-1.134766 l 0.30078,0.177735 -0.0273,2.296875 2.35157,-1.96875 q 0.90234,-0.369141 1.98242,-0.369141 2.17383,0 3.2539,1.3125 0.875,1.066406 0.875,3.130859 0,0.232422 -0.0547,1.900391 -0.0547,1.667969 -0.0547,2.378906 0,2.064453 0.0684,2.638672 0.0684,0.560547 0.31445,0.710938 0.2461,0.15039 1.42188,0.177734 l 0.12304,0.136719 z" />
 <path d="m 280.85156,72.958984 -0.13672,0.136719 q -0.91601,-0.05469 -2.22851,-0.05469 -1.2168,0 -2.40625,0.05469 -0.76563,-1.394531 -3.70508,-4.634766 -1.54492,-1.708984 -1.96875,-2.009765 l 0.0957,4.675781 q 0.0273,0.533203 0.30078,0.65625 0.31446,0.164063 1.62696,0.205078 l 0.15039,0.136719 v 0.833984 l -0.13672,0.136719 Q 271.14453,73 268.69727,73 266.25,73 264.96484,73.0957 l -0.13672,-0.136719 V 72.125 l 0.13672,-0.136719 q 1.3125,-0.04102 1.62696,-0.205078 0.27343,-0.123047 0.30078,-0.65625 0.0957,-1.777344 0.0957,-6.220703 v -4.580078 q 0,-2.871094 -0.0957,-4.648438 -0.0274,-0.505859 -0.30078,-0.65625 -0.27344,-0.164062 -1.58594,-0.205078 l -0.13672,-0.15039 v -0.751954 l 0.13672,-0.15039 q 2.63867,-0.28711 5.29101,-1.134766 l 0.28711,0.164063 q 0,0.36914 -0.041,1.353515 -0.13672,3.267578 -0.13672,7.232422 v 4.470703 l 1.35352,-1.107422 q 0.88867,-0.724609 2.48828,-2.419921 l 1.42187,-1.503907 q 0.39649,-0.423828 0.62891,-0.738281 1.16211,0.04102 1.88672,0.04102 0.91601,0 1.65429,-0.04102 l 0.13672,0.136719 v 0.820312 l -0.13672,0.136719 -0.99804,0.05469 q -0.60157,0.02734 -1.24414,0.478515 -0.2461,0.177735 -1.03907,0.820313 l -1.14843,0.943359 -0.41016,0.382813 -1.16211,1.039062 2.92578,3.417969 q 2.78906,3.253906 3.34961,3.527344 0.28711,0.136718 0.60156,0.136718 l 0.13672,0.150391 z" />
</g>
 <rect fill="#ffffff" stroke-width="1.2" stroke="#000000" height="98" width="138" y="14" x="14"/>
 <ellipse fill="none" stroke-width="2" stroke="#5eb705" ry="40" rx="60" cy="63" cx="83"/>
<g stroke-width="1.27111" fill="#000000">
 <path d="m43.57054,62.50781l0,6.11103l3.6197,0q1.82102,0 2.69242,-0.74851q0.88259,-0.75969 0.88259,-2.31259q0,-1.56406 -0.88259,-2.30141q-0.8714,-0.74852 -2.69242,-0.74852l-3.6197,0zm0,-6.85955l0,5.02736l3.3404,0q1.65344,0 2.45782,-0.61445q0.81555,-0.62563 0.81555,-1.89923q0,-1.26242 -0.81555,-1.88805q-0.80438,-0.62563 -2.45782,-0.62563l-3.3404,0zm-2.25673,-1.85453l5.76471,0q2.58071,0 3.97719,1.0725q1.39649,1.0725 1.39649,3.04993q0,1.53055 -0.715,2.43547q-0.715,0.90493 -2.10032,1.12837q1.66462,0.3575 2.58071,1.49703q0.92727,1.12837 0.92727,2.82649q0,2.23439 -1.51938,3.45212q-1.51938,1.21774 -4.32353,1.21774l-5.98814,0l0,-16.67965z"/>
 <path d="m62.59629,64.1836q-2.49133,0 -3.45212,0.56977q-0.96078,0.56976 -0.96078,1.94391q0,1.09484 0.715,1.74281q0.72618,0.6368 1.96626,0.6368q1.7093,0 2.73711,-1.20656q1.03899,-1.21774 1.03899,-3.22868l0,-0.45805l-2.04446,0zm4.10009,-0.84907l0,7.13885l-2.05563,0l0,-1.89922q-0.70383,1.13953 -1.75399,1.68696q-1.05016,0.53625 -2.56954,0.53625q-1.92156,0 -3.0611,-1.07251q-1.12836,-1.08367 -1.12836,-2.89352q0,-2.11149 1.40766,-3.18399q1.41883,-1.07251 4.22298,-1.07251l2.88235,0l0,-0.20109q0,-1.41883 -0.93844,-2.18969q-0.92727,-0.78204 -2.61423,-0.78204q-1.0725,0 -2.08914,0.25696q-1.01664,0.25695 -1.95508,0.77086l0,-1.89923q1.12836,-0.4357 2.18969,-0.64797q1.06133,-0.22343 2.0668,-0.22343q2.71477,0 4.0554,1.40766q1.34063,1.40766 1.34063,4.26766z"/>
 <path d="m81.34275,62.92117l0,7.55221l-2.05563,0l0,-7.48518q0,-1.77633 -0.69266,-2.65891q-0.69266,-0.88258 -2.07797,-0.88258q-1.66462,0 -2.6254,1.06133q-0.96078,1.06133 -0.96078,2.89353l0,7.07181l-2.06681,0l0,-12.51253l2.06681,0l0,1.94391q0.73734,-1.12836 1.73164,-1.68696q1.00547,-0.55859 2.31258,-0.55859q2.15618,0 3.2622,1.34062q1.10602,1.32946 1.10602,3.92134z"/>
 <path d="m85.38698,53.0899l2.0668,0l0,10.26698l6.13338,-5.39603l2.6254,0l-6.63612,5.85408l6.91541,6.65845l-2.68125,0l-6.35682,-6.11103l0,6.11103l-2.0668,0l0,-17.38348z"/>
 <path d="m106.82678,53.79373l2.25673,0l0,16.67965l-2.25673,0l0,-16.67965z"/>
 <path d="m115.83133,55.64826l0,12.97058l2.72595,0q3.45212,0 5.0497,-1.56406q1.60875,-1.56407 1.60875,-4.93798q0,-3.35158 -1.60875,-4.90447q-1.59758,-1.56407 -5.0497,-1.56407l-2.72595,0zm-2.25672,-1.85453l4.63634,0q4.84861,0 7.1165,2.02211q2.2679,2.01094 2.2679,6.30096q0,4.31235 -2.27907,6.33447q-2.27907,2.02211 -7.10533,2.02211l-4.63634,0l0,-16.67965z"/>
</g>
<ellipse fill="url(#dotGradient)" stroke-width="5" cx="100" cy="63" rx="3" ry="3"/>
<g fill="#ffffff">
 <rect height="10.47" width="25.84" y="30" x="25.08"/>
 <rect height="10.47" width="25.84" y="90.2" x="25.08"/>
 <rect height="10.47" width="25.84" y="30" x="115.08"/>
 <rect height="10.47" width="25.84" y="90.2" x="115.08"/>
</g>
<g fill="url(#bankPillar)">
 <rect height="10.47" width="3.74" y="30" x="25.08"/>
 <rect height="10.47" width="3.74" y="30" x="32.44"/>
 <rect height="10.47" width="3.74" y="30" x="39.81"/>
 <rect height="10.47" width="3.74" y="30" x="47.18"/>
 <rect height="10.47" width="3.74" y="90.2" x="25.08"/>
 <rect height="10.47" width="3.74" y="90.2" x="32.44"/>
 <rect height="10.47" width="3.74" y="90.2" x="39.81"/>
 <rect height="10.47" width="3.74" y="90.2" x="47.18"/>
 <rect height="10.47" width="3.74" y="30" x="115.08"/>
 <rect height="10.47" width="3.74" y="30" x="122.44"/>
 <rect height="10.47" width="3.74" y="30" x="129.81"/>
 <rect height="10.47" width="3.74" y="30" x="137.18"/>
 <rect height="10.47" width="3.74" y="90.2" x="115.08"/>
 <rect height="10.47" width="3.74" y="90.2" x="122.44"/>
 <rect height="10.47" width="3.74" y="90.2" x="129.81"/>
 <rect height="10.47" width="3.74" y="90.2" x="137.18"/>
</g>
<g fill="#e0e0e0" stroke-linecap="round" stroke-width="0.5" stroke="#404040">
 <path d="m22.7,26.1l15.3,-5.1l15.3,5.1"/>
 <path d="m22.7,86.3l15.3,-5.11l15.3,5.11"/>
 <path d="m112.7,26.1l15.3,-5.1l15.3,5.1"/>
 <path d="m112.7,86.3l15.3,-5.11l15.3,5.11"/>
</g>
<g fill="#f2f2f2" stroke-width="0.5" stroke="#404040">
 <rect height="3.4" width="30.6" y="26.35" x="22.7"/>
 <rect height="2.04" width="34" y="42.76" x="21"/>
 <rect height="2.04" width="30.6" y="40.72" x="22.7"/>
 <rect height="3.4" width="30.6" y="86.55" x="22.7"/>
 <rect height="2.04" width="34" y="102.96" x="21"/>
 <rect height="2.04" width="30.6" y="100.91" x="22.7"/>
 <rect height="3.4" width="30.6" y="26.35" x="112.7"/>
 <rect height="2.04" width="34" y="42.76" x="111"/>
 <rect height="2.04" width="30.6" y="40.72" x="112.7"/>
 <rect height="3.4" width="30.6" y="86.55" x="112.7"/>
 <rect height="2.04" width="34" y="102.96" x="111"/>
 <rect height="2.04" width="30.6" y="100.91" x="112.7"/>
</g>
</svg>
