<svg width="300" height="180" xmlns="http://www.w3.org/2000/svg" xmlns:svg="http://www.w3.org/2000/svg">
 <defs>
  <linearGradient y2="1" x2="1" y1="0" x1="0" id="bankdirectGradient">
   <stop offset="0" stop-color="#d9eab7"/>
   <stop offset="0.5" stop-color="#f2fce8" stop-opacity="0.99219"/>
   <stop offset="1" stop-color="#d9eab7"/>
  </linearGradient>
  <radialGradient r="0.5" cy="0.46875" cx="0.61981" spreadMethod="pad" id="svg_2">
   <stop offset="0" stop-color="#ffff00"/>
   <stop offset="0.99872" stop-opacity="0.99609" stop-color="#ffaa00"/>
  </radialGradient>
  <radialGradient r="0.5" cy="0.46875" cx="0.61981" spreadMethod="pad" id="svg_7">
   <stop offset="0" stop-color="#ffff00"/>
   <stop offset="0.987" stop-opacity="0.98438" stop-color="#ffc700"/>
  </radialGradient>
  <filter id="svg_1_blur">
   <feGaussianBlur stdDeviation="3.5"/>
  </filter>
  <filter id="svg_3_blur">
   <feGaussianBlur stdDeviation="2.5"/>
  </filter>
 </defs>
 <g>
  <title>Layer 1</title>
  <g id="svg_22">
   <g id="svg_44" stroke="null">
    <rect x="1" y="0" width="300" height="180" fill="url(#bankdirectGradient)" id="svg_45" stroke="null"/>
    <text x="31" y="140" font-family="Sans-serif" font-size="20" id="svg_46" stroke="null">@n</text>
    <text font-weight="bold" x="31" y="160" font-family="monospace" font-size="14" id="svg_46" stroke="null">IDN: @i</text>
   </g>
  </g>
  <g id="svg_23">
   <g stroke="null" id="svg_1">
    <g stroke="null" id="svg_3" transform="matrix(0.7158436500416631,-0.27065803045481446,0.27065803045481446,0.7158436500416631,-49.49454924617858,87.90453206431629) ">
     <ellipse stroke="null" id="svg_4" fill="#404040" stroke-width="5" cx="159.67247" cy="30.64171" rx="64" ry="47" filter="url(#svg_1_blur)"/>
     <ellipse stroke="null" id="svg_5" fill="url(#svg_2)" stroke-width="5" cx="161.67247" cy="28.96646" rx="65.09307" ry="46.49134"/>
     <ellipse stroke="null" id="svg_6" fill="url(#svg_7)" stroke-width="5" cx="162.09287" cy="29.27573" rx="60.51163" ry="43.08201" filter="url(#svg_3_blur)"/>
    </g>
   </g>
   <g stroke="null" id="svg_20">
    <g stroke="null" id="svg_8" fill="#053f8f">
     <path stroke="null" id="svg_9" d="m32.92384,79.18101c31.91493,-8.06768 53.08408,-14.07913 81.47069,-19.4456c0.87333,-0.13002 1.39508,-0.49868 -0.00685,-0.51749l-49.17425,0.88957c0.19416,1.99896 -1.93823,4.86952 -6.39462,7.62889c-2.2855,1.42416 -7.49973,4.1784 -25.95312,11.12473c-0.24377,0.10094 -0.12745,0.35753 0.05817,0.31991"/>
     <path stroke="null" id="svg_10" d="m84.82069,68.10933l-5.59144,7.17985c-0.78349,1.05122 -2.27353,2.70378 -4.37171,2.78845l-34.13202,1.09144c-0.21725,0.00342 -0.15568,-0.13771 -0.06329,-0.17022l44.05583,-11.1042c0.23865,-0.07954 0.24462,0.06843 0.10263,0.21469"/>
     <path stroke="null" id="svg_11" d="m92.46414,49.87662c4.37856,0.05817 4.24683,2.80641 2.20682,5.53926c-0.83825,1.13505 -1.14105,1.53878 -1.9425,2.52244l-28.272,0.30793c-3.8679,-3.46503 -11.25986,-6.29798 -15.73252,-7.89149c-0.83996,-0.33102 -0.34898,-0.33102 0.32931,-0.32417c4.28703,-0.0231 41.09202,-0.18476 43.4109,-0.15396"/>
    </g>
   </g>
   <g stroke="null" id="svg_21">
    <g stroke="null" id="svg_12" fill="#757575">
     <path stroke="null" id="svg_13" d="m186.80005,56.57586l7.95023,0c1.73334,0 3.20453,0.16791 4.72424,1.18572c1.18945,0.77151 1.98709,2.19887 1.67643,4.01057c-0.42914,2.38077 -3.28196,5.04982 -7.76926,5.04982l-5.05822,0l-1.15959,6.56487l-3.33142,0l2.96757,-16.811l0.00001,0.00001l-0.00001,0.00001l-0.00001,0l0.00002,-0.00001l0.00001,0.00001zm1.95443,7.83363l4.92576,0c2.46849,0 3.90421,-1.38257 4.13464,-2.70449c0.2071,-1.14095 -0.25934,-1.8201 -1.00474,-2.24363c-0.67636,-0.38342 -1.34152,-0.47578 -2.30149,-0.47578l-4.80634,0l-0.94783,5.42392l-0.00001,0l0,-0.00001l0,-0.00001l0.00001,0l0.00001,0l-0.00001,0z"/>
     <path stroke="null" id="svg_14" d="m225.43359,69.30444c1.49545,1.00941 3.59075,1.66897 5.93982,1.66897c2.71009,0 4.51341,-0.94598 4.76249,-2.33881c0.19217,-1.1764 -0.52429,-2.07479 -2.47407,-2.26323c-0.97489,-0.09516 -1.72402,-0.18937 -2.8407,-0.30691c-3.71857,-0.40021 -5.42579,-2.2819 -4.99571,-4.71677c0.50843,-2.88455 3.47695,-4.91456 8.02113,-4.91456c2.69889,0 4.9892,0.73515 6.80369,1.74453l-2.22127,2.1037c-1.46095,-0.77525 -3.23999,-1.29861 -5.19443,-1.29861c-2.02627,0 -3.80813,0.80698 -4.09639,2.41436c-0.16419,0.93571 0.56627,1.88074 2.74181,2.14569c0.57375,0.06716 1.3863,0.16326 2.4237,0.26028c4.03389,0.36944 5.56853,2.54496 5.15619,4.83059c-0.54481,3.09352 -3.84824,4.89123 -8.56875,4.89123c-3.2288,0 -5.95008,-0.75753 -7.97729,-2.31546l2.51979,-1.90499l0.00001,-0.00001l0.00001,0l0.00001,0.00001l-0.00001,-0.00001l-0.00002,0l-0.00001,0z"/>
     <polygon stroke="null" id="svg_15" points="249.5249786376953,58.8437614440918 243.51705932617188,58.8437614440918 243.91070556640625,56.57586669921875 259.2701416015625,56.57586669921875 258.8699035644531,58.8437614440918 252.84432983398438,58.8437614440918 250.28720092773438,73.38592529296875 246.9613494873047,73.38592529296875 "/>
     <path stroke="null" id="svg_16" d="m221.08066,59.45947c-0.77804,-1.45814 -2.88082,-3.02542 -6.33911,-3.02542l-1.50011,0c-3.45082,0 -6.0919,1.5673 -7.40542,3.02542c-0.87415,0.98608 -1.20252,1.48425 -1.92366,5.52281c-0.71274,4.03762 -0.55135,4.53113 -0.01492,5.52001c0.79204,1.46187 2.88082,3.02356 6.3419,3.02356l1.49638,0c3.45082,0 6.09374,-1.56168 7.40542,-3.02356c0.89,-0.98887 1.21931,-1.48239 1.92366,-5.52001c0.71368,-4.03762 0.55321,-4.53674 0.01586,-5.52281m-5.28679,10.2909c-0.80511,0.65957 -2.04121,1.22397 -3.60755,1.22397l-1.50291,0c-1.57288,0 -2.61121,-0.56348 -3.17001,-1.22397c-0.72301,-0.84801 -0.88439,-1.32846 -0.27335,-4.76715c0.60453,-3.44616 0.94411,-3.92474 1.95071,-4.77275c0.79112,-0.65584 2.03466,-1.2249 3.61035,-1.2249l1.49545,0c1.57195,0 2.61029,0.56908 3.17095,1.2249c0.71833,0.84801 0.88534,1.3266 0.2752,4.77275c-0.61571,3.43963 -0.93571,3.91822 -1.94884,4.76715"/>
     <path stroke="null" id="svg_17" d="m266.09436,60.33922c0.79671,-0.65677 2.02813,-1.22397 3.60195,-1.22397l7.9661,0l0.45058,-2.56363l-7.9661,0c-3.44802,0 -6.10589,1.5654 -7.40542,3.03755c-0.88906,0.98887 -1.19691,1.33313 -1.9078,5.38288c-0.71461,4.04881 -0.52708,4.38933 0.00561,5.38288c0.79671,1.46095 2.89109,3.02822 6.35123,3.02822l7.9521,0l0.45154,-2.55616l-7.96798,0c-1.56168,0 -2.60561,-0.57001 -3.17189,-1.22397c-0.63064,-0.76032 -0.84894,-1.10642 -0.47204,-3.57023l10.91222,0l0.3769,-2.2651l-10.88423,0c0.47672,-2.34161 0.82375,-2.68024 1.70722,-3.42844"/>
     <path stroke="null" id="svg_18" d="m173.20945,59.45947c-0.7883,-1.45814 -2.88828,-3.02542 -6.34843,-3.02542l-0.18286,0c-3.45363,0 -6.09933,1.5673 -7.40542,3.02542c-0.88066,0.98608 -1.2137,1.48425 -1.92179,5.52281l-1.48799,8.3999l3.31928,0l1.19318,-6.71786l9.191,0l-1.18665,6.71786l3.32675,0l1.48333,-8.3999c0.71648,-4.03762 0.55881,-4.53674 0.01959,-5.52281m-10.58291,0.75098c0.79204,-0.65584 2.03654,-1.2249 3.60942,-1.2249l0.18005,0c1.56822,0 2.6168,0.56908 3.17841,1.2249c0.66889,0.79671 0.85081,1.27249 0.3713,4.18502l-9.18728,0c0.54762,-2.91346 0.89651,-3.38833 1.8481,-4.18502"/>
     <path stroke="null" id="svg_19" d="m139.78525,69.74758c0.3004,-1.69322 2.32387,-13.19223 2.32387,-13.19223l3.32675,0c0,0 -1.91526,11.01296 -2.20446,12.417c-0.36198,1.766 0.09516,1.84717 1.44507,1.84717l8.92699,0l-0.43194,2.5655l-10.89356,0c-2.78286,0.00093 -2.75954,-2.211 -2.49273,-3.6374"/>
    </g>
   </g>
  </g>
 </g>
</svg>