<svg width="132" height="25" xmlns="http://www.w3.org/2000/svg">
 <g>
  <title>Mobile ID Logo</title>
  <g stroke-opacity="0.7" stroke-width="1.3" stroke="#2343fc" fill="#c8d5f7">
  <path d="m 1,1 h 5.05 l 6.1,19 6.15,-19 h 4.9 V 23.8 H 20.3 L 20.4,3.6 13.8,23.8 H 10.4 L 3.9,3.6 V 23.8 H 1 Z" />
  <path d="m35.2041,8.9834q-2.16797,0 -3.42773,1.69922q-1.25977,1.68457 -1.25977,4.6289q0,2.94434 1.24512,4.64356q1.25976,1.68457 3.44238,1.68457q2.15332,0 3.41309,-1.69922q1.25976,-1.69922 1.25976,-4.62891q0,-2.91504 -1.25976,-4.61425q-1.25977,-1.71387 -3.41309,-1.71387zm0,-2.28516q3.51563,0 5.52246,2.28516q2.00684,2.28516 2.00684,6.32812q0,4.02832 -2.00684,6.32813q-2.00683,2.28515 -5.52246,2.28515q-3.53027,0 -5.53711,-2.28515q-1.99219,-2.29981 -1.99219,-6.32813q0,-4.04296 1.99219,-6.32812q2.00684,-2.28516 5.53711,-2.28516z"/>
  <path d="m58.96387,15.31152c0,-1.98242 -0.41016,-3.53515 -1.23047,-4.6582c-0.81055,-1.13281 -1.92871,-1.69922 -3.35449,-1.69922c-1.42579,0 -2.54883,0.56641 -3.36914,1.69922c-0.81055,1.12305 -1.21582,2.67578 -1.21582,4.6582c0,1.98243 0.40527,3.54005 1.21582,4.67286c0.82031,1.12305 1.94335,1.68457 3.36914,1.68457c1.42578,0 2.54394,-0.56152 3.35449,-1.68457c0.82031,-1.13281 1.23047,-2.69043 1.23047,-4.67286zm-9.14836,-6.9348c1.64105,-1.52273 3.0297,-1.72985 4.76986,-1.74315c1.99219,0 4.06112,0.85569 5.30135,2.43772c1.25,1.58203 1.875,3.66211 1.875,6.24023c0,2.57813 -0.64656,4.80911 -1.89656,6.39115c-1.24023,1.58202 -2.85644,2.37304 -4.84863,2.37304c-2.04061,0.07633 -4.20857,-0.6673 -5.2657,-2.08809l0.04312,1.51238l-2.70997,0l0,-22.79297l2.70997,0l0.02156,7.66969z"/>
  <path d="m66.22949,7.09375l2.69531,0l0,16.40625l-2.69531,0l0,-16.40625zm0,-6.38672l2.69531,0l0,3.41309l-2.69531,0l0,-3.41309z"/>
  <path d="m74.54981,0.70703l2.69531,0l0,22.79297l-2.69531,0l0,-22.79297z"/>
  <path d="m96.90332,14.62305l0,1.31836l-12.39258,0q0.17578,2.7832 1.66992,4.24804q1.50879,1.4502 4.18946,1.4502q1.55273,0 3.00293,-0.38086q1.46484,-0.38086 2.90039,-1.14258l0,2.54883q-1.4502,0.61523 -2.97363,0.9375q-1.52344,0.32226 -3.09083,0.32226q-3.92578,0 -6.22558,-2.28515q-2.28516,-2.28516 -2.28516,-6.18164q0,-4.02832 2.16797,-6.38672q2.18262,-2.37305 5.87402,-2.37305q3.31055,0 5.2295,2.13867q1.93359,2.12403 1.93359,5.78614zm-2.69531,-0.79102q-0.0293,-2.21191 -1.24512,-3.53027q-1.20117,-1.31836 -3.19336,-1.31836q-2.25586,0 -3.61816,1.27441q-1.34766,1.27442 -1.55274,3.58887l9.60938,-0.01465z"/>
  </g>
  <g stroke-opacity="0.7" stroke-width="1.3" stroke="#fc0526" fill="#f7c8d5" text-anchor="start" font-family="Sans-serif" font-size="30px" font-weight="normal">
  <path d="m 103.44434,1.23 h 2.95898 V 24 h -2.95898 z"/>
  <path d="m 112.292,1.23 h 6.179 c 4.6114,0 7.36514,1.4645908 9.131,3.251 1.98242,1.8672615 2.3735,4.4119998 2.3735,8.162 0,3.769531 -0.50626,6.472753 -2.389,8.306 C 125.67835,22.806988 123.03468,24 118.471,24 h -6.179 z m 2.959,2.632 v 17.506 l 3.574,2.11e-4 c 3.01757,1.78e-4 5.22451,-1.083235 6.621,-2.450422 1.40625,-1.367187 1.71,-3.32557 1.71,-6.274789 0,-2.9296877 -0.30375,-5.0735781 -1.71,-6.431 -1.39649,-1.3671875 -3.60343,-2.35 -6.621,-2.35 z" />
  </g>
 </g>
</svg>