<svg width="132" height="25" xmlns="http://www.w3.org/2000/svg">
 <g>
  <title>Mobile ID Logo</title>
  <g stroke-opacity="0.7" stroke-width="1.3" stroke="#2343fc" fill="#c8d5f7">
  <path d="m 1,1 h 5.05 l 6.1,19 6.15,-19 h 4.9 V 23.8 H 20.3 L 20.4,3.6 13.8,23.8 H 10.4 L 3.9,3.6 V 23.8 H 1 Z" />
  <path d="m35.2041,8.9834q-2.16797,0 -3.42773,1.69922q-1.25977,1.68457 -1.25977,4.6289q0,2.94434 1.24512,4.64356q1.25976,1.68457 3.44238,1.68457q2.15332,0 3.41309,-1.69922q1.25976,-1.69922 1.25976,-4.62891q0,-2.91504 -1.25976,-4.61425q-1.25977,-1.71387 -3.41309,-1.71387zm0,-2.28516q3.51563,0 5.52246,2.28516q2.00684,2.28516 2.00684,6.32812q0,4.02832 -2.00684,6.32813q-2.00683,2.28515 -5.52246,2.28515q-3.53027,0 -5.53711,-2.28515q-1.99219,-2.29981 -1.99219,-6.32813q0,-4.04296 1.99219,-6.32812q2.00684,-2.28516 5.53711,-2.28516z"/>
  <path d="m58.96387,15.31152c0,-1.98242 -0.41016,-3.53515 -1.23047,-4.6582c-0.81055,-1.13281 -1.92871,-1.69922 -3.35449,-1.69922c-1.42579,0 -2.54883,0.56641 -3.36914,1.69922c-0.81055,1.12305 -1.21582,2.67578 -1.21582,4.6582c0,1.98243 0.40527,3.54005 1.21582,4.67286c0.82031,1.12305 1.94335,1.68457 3.36914,1.68457c1.42578,0 2.54394,-0.56152 3.35449,-1.68457c0.82031,-1.13281 1.23047,-2.69043 1.23047,-4.67286zm-9.14836,-6.9348c1.64105,-1.52273 3.0297,-1.72985 4.76986,-1.74315c1.99219,0 4.06112,0.85569 5.30135,2.43772c1.25,1.58203 1.875,3.66211 1.875,6.24023c0,2.57813 -0.64656,4.80911 -1.89656,6.39115c-1.24023,1.58202 -2.85644,2.37304 -4.84863,2.37304c-2.04061,0.07633 -4.20857,-0.6673 -5.2657,-2.08809l0.04312,1.51238l-2.70997,0l0,-22.79297l2.70997,0l0.02156,7.66969z"/>
  <path d="m66.22949,7.09375l2.69531,0l0,16.40625l-2.69531,0l0,-16.40625zm0,-6.38672l2.69531,0l0,3.41309l-2.69531,0l0,-3.41309z"/>
  <path d="m74.54981,0.70703l2.69531,0l0,22.79297l-2.69531,0l0,-22.79297z"/>
  <path d="M 96.90332,14.62305 V 16.241 H 84.51074 c 0.117187,1.855467 0.673827,2.97189 1.66992,3.94845 1.00586,0.9668 2.202965,1.346902 3.58934,1.35055 2.342893,0.0062 3.664907,-2.080948 3.670888,-2.089362 L 96.428,19.464 c 0,0 -1.084059,2.348789 -2.673193,3.304 -1.589134,0.955211 -2.93988,1.056 -3.984807,1.056 -2.617187,0 -4.2534,-0.660914 -5.7866,-2.184347 -1.52344,-1.52344 -2.28516,-3.583987 -2.28516,-6.18164 0,-2.685547 0.722657,-4.814453 2.16797,-6.38672 1.45508,-1.5820333 3.413087,-2.37305 5.87402,-2.37305 2.207033,0 3.9502,0.71289 5.2295,2.13867 1.28906,1.41602 1.93359,3.344733 1.93359,5.78614 z M 94.20801,13.83203 C 94.188477,12.357423 93.773437,11.180667 92.96289,10.30176 92.16211,9.4228533 91.098127,8.9834 89.77,8.9834 c -1.503907,0 -2.71043,0.4248033 -3.61863,1.27441 -0.89844,0.849613 -1.41602,2.045903 -1.55274,3.58887 z"/>
  </g>
  <g stroke-opacity="0.7" stroke-width="1.3" stroke="#fc0526" fill="#f7c8d5" text-anchor="start" font-family="Sans-serif" font-size="30px" font-weight="normal">
  <path d="m 103.44434,1.23 h 2.95898 V 24 h -2.95898 z"/>
  <path d="m 112.292,1.23 h 6.179 c 4.6114,0 7.36514,1.4645908 9.131,3.251 1.98242,1.8672615 2.3735,4.4119998 2.3735,8.162 0,3.769531 -0.50626,6.472753 -2.389,8.306 C 125.67835,22.806988 123.03468,24 118.471,24 h -6.179 z m 2.959,2.632 v 17.506 l 3.574,2.11e-4 c 3.01757,1.78e-4 5.22451,-1.083235 6.621,-2.450422 1.40625,-1.367187 1.71,-3.32557 1.71,-6.274789 0,-2.9296877 -0.30375,-5.0735781 -1.71,-6.431 -1.39649,-1.3671875 -3.60343,-2.35 -6.621,-2.35 z" />
  </g>
 </g>
</svg>