<svg width="132" height="25" xmlns="http://www.w3.org/2000/svg">
<title>Mobile ID Logo</title>
<g stroke-opacity="0.7" stroke-width="1.3" stroke="#2343fc" fill="#c8d5f7">
  <path d="M 2.4003906,0.73046875 C 1.1064506,0.72717 1.0507812,1.8691406 1.0507812,1.8691406 V 22.859375 c 10e-8,0 0.065314,1.144525 1.3496094,1.140625 C 3.6846906,23.996094 3.75,22.859375 3.75,22.859375 V 4.326 l 5.9255707,13.790479 c 0,0 0.2678931,1.017154 0.7248203,1.283912 0.456927,0.266758 1.700195,0.09961 1.700195,0.09961 0,0 1.208149,0.206333 1.700195,-0.09961 0.492046,-0.305942 0.785757,-1.592981 0.785757,-1.592981 L 20.449219,4.327 v 18.532375 c 0,0 0.06727,1.144525 1.351562,1.140625 1.2843,-0.0039 1.34961,-1.140625 1.34961,-1.140625 V 1.8691406 c 0.01191,0.00402 -0.05567,-1.13537285 -1.34961,-1.13867185 C 20.506841,0.72717 18.549,1.8691406 18.549,1.8691406 L 12.210938,16.199219 5.345,1.5595721 C 5.35691,1.5635892 3.6943276,0.73376775 2.4003906,0.73046875 Z"/>
  <path d="m 35.2,9.7 c -3.521074,0.019927 -4.682999,3.174953 -4.683,5.8 -1e-6,2.625047 1.380821,5.801982 4.683,5.8 3.302179,-0.002 4.677001,-3.177857 4.677,-5.8 -1e-6,-2.622143 -1.155926,-5.8199268 -4.677,-5.8 z m 0,-2.7 c 5.289322,-0.027659 7.45622,4.226903 7.5,8.5 0.04378,4.273097 -2.745327,8.5 -7.5,8.5 -4.754673,0 -7.43433,-4.008005 -7.5,-8.5 -0.06567,-4.491995 2.210678,-8.4723408 7.5,-8.5 z" />
  <path d="M 48.5,0.73046875 C 47.20606,0.72717 47.150391,1.8691406 47.150391,1.8691406 V 22.859375 c 0,0 0.06531,1.144525 1.349609,1.140625 1.2843,-0.0039 1.349609,-1.140625 1.349609,-1.140625 V 22.400391 C 51.036576,23.395597 52.561453,24 54.400391,24 c 4.754673,0 7.54378,-4.226903 7.5,-8.5 -0.04378,-4.273097 -2.210678,-8.527659 -7.5,-8.5 -1.895711,0.00991 -3.398232,0.5334277 -4.550782,1.4003906 v -6.53125 C 49.861519,1.8731577 49.793937,0.73376775 48.5,0.73046875 Z m 5.900391,8.96875005 c 3.159667,-0.00933 4.724608,3.1317632 4.677734,5.8007812 -0.04687,2.669018 -1.642389,5.791145 -4.677734,5.800781 C 51.365046,21.310417 49.839085,18.290952 49.85,15.5 c 0.01091,-2.790952 1.390724,-5.7914511 4.550391,-5.8007812 z"/>
  <path d="m 69.05,8.14 v 14.72 c 0,0 -0.0657,1.136094 -1.35,1.14 -1.284295,0.0039 -1.35,-1.14 -1.35,-1.14 V 8.14 c 0,0 0.186494,-1.14 1.35,-1.14 1.163506,0 1.35,1.14 1.35,1.14 z"/>
  <path d="m 74.45,1.87 c 0,0 0.05606,-1.14329875 1.35,-1.14 1.293937,0.003299 1.36191,1.1440297 1.35,1.1400126 V 22.86 c 0,0 -0.0657,1.136094 -1.35,1.14 -1.284295,0.0039 -1.35,-1.14 -1.35,-1.14 z" />
  <path d="m 96.667177,16.241 c -0.521043,0.358694 -1.361,0.309 -1.361,0.309 H 85 c -0.702445,0 0.46559,4.748609 4.5,4.75 2.667247,0.104865 3.762656,-1.178682 4.682209,-1.852 0,0 0.623002,-0.311516 1.460583,0.17766 0.837581,0.489176 0.487499,1.69034 0.487499,1.69034 -1.01813,1.200626 -2.985014,2.61926 -6.630291,2.684001 -8.013031,-0.07914 -7.8,-8.55 -7.8,-8.55 0,0 -0.356776,-8.479802 7.8,-8.45 6.356844,0.052853 8.112787,5.042358 7.763823,8.123 0,0 -0.0756,0.759306 -0.596646,1.117999 z M 94.437,13.85 C 94.966233,13.85 94.199472,9.767304 89.5,9.7 85.150696,9.637711 84.484106,13.856146 85,13.85 Z"/>
  <path fill="#dfeaf7" d="m 67.7,0.73 c 2.287155,0.0234011 2.247128,3.3964831 0,3.39 -2.247128,-0.00648 -2.287155,-3.41340113 0,-3.39 z"/>
</g>
<g stroke-opacity="0.7" stroke-width="1.3" stroke="#fc0526" fill="#f7c8d5">
  <path d="m 103.44434,1.83 c 0,0 0.31009,-1.0826115 1.47949,-1.1 1.1694,-0.017389 1.50538,1.0980081 1.47949,1.1 v 21.371 c 0.011,0 -0.61714,0.798973 -1.47932,0.799 -0.86218,2.7e-5 -1.47966,-0.799 -1.47966,-0.799 z"/>
  <path d="m 112.692,1.13 c 0.40424,-0.40177385 1.09,-0.4 1.09,-0.4 0,0 0.93984,0.006439 5.6415,0 0,0 9.7015,0.1371644 9.7045,11.62 0.003,11.482836 -9.8055,11.65 -9.8055,11.65 -4.62542,0.009 -5.7405,3.79e-4 -5.7405,3.79e-4 -0.0102,-0.0076 -0.44181,-0.01694 -0.832,-0.395379 -0.39019,-0.378444 -0.458,-0.997 -0.458,-0.997 V 2.215 c 0,0 -0.004,-0.6832261 0.4,-1.085 z m 2.559,2.67 v 17.06 c -0.0178,0.393661 -0.0354,0.29623 3.781,0.29 0,0 6.97783,0.0247 7.124,-8.8 0.14617,-8.8246945 -6.99237,-8.7239879 -6.99237,-8.7239879 C 115.03146,3.6295937 115.25356,3.5891275 115.251,3.8 Z"/>
</g>
</svg>