<svg width="130" height="26" xmlns="http://www.w3.org/2000/svg">
<title>Mobile ID Logo</title>
<g stroke-opacity="0.7" stroke-width="1.3" stroke="#2343fc" fill="#c8d5f7">
  <path d="M 3.5,1.3 C 0.91429882,1.3 1.05,3.955 1.05,3.955 l 4.165e-4,19.50428 c 10e-8,0 0.065314,1.144526 1.3496094,1.140625 1.2843002,-0.0039 1.3496096,-1.140625 1.3496096,-1.140625 V 4.0998449 c 0,0 -0.034285,-0.3554562 0.4653645,-0.4998449 C 4.7146495,3.4556113 4.93,3.9 4.93,3.9 L 9.4703125,17.97 C 9.4750673,17.996743 10.05064,19.5 11.4,19.5 h 1.46 c 1.311047,0 1.959374,-1.53642 1.94,-1.53 L 19.4285,3.9 c 0,0 0.158412,-0.3345285 0.6065,-0.3 0.448088,0.034528 0.415,0.5 0.415,0.5 v 19.359 c 0,0 0.06649,1.144714 1.350777,1.140813 1.2843,-0.0039 1.34961,-1.140625 1.34961,-1.140625 L 23.15,3.955 C 23.16191,3.95902 23.336555,1.3 20.7,1.3 H 19.2 C 17.481661,1.3 16.8,3 16.8,3 l -4.52957,13.987616 c 0,0 -0.07753,0.149838 -0.170809,0.152143 -0.09328,0.0023 -0.17605,-0.161518 -0.17605,-0.161518 L 7.4,3 C 7.423605,3.0034714 6.749553,1.3 5,1.3 Z"/>
  <path d="m 35.2,10.299811 c -3.521074,0.01993 -4.682999,3.174953 -4.683,5.799999 -1e-6,2.625047 1.380821,5.801982 4.683,5.8 3.302179,-0.002 4.677001,-3.177856 4.677,-5.8 -1e-6,-2.622142 -1.155926,-5.819926 -4.677,-5.799999 z m 0,-2.7000005 c 5.289322,-0.027659 7.45622,4.2269035 7.5,8.4999995 0.04378,4.273097 -2.745327,8.5 -7.5,8.5 -4.754673,0 -7.43433,-4.008005 -7.5,-8.5 -0.06567,-4.491994 2.210678,-8.4723403 7.5,-8.4999995 z" />
  <path d="m 48.5,1.3302793 c -1.29394,-0.0033 -1.349609,1.1386718 -1.349609,1.1386718 V 23.459185 c 0,0 0.06531,1.144526 1.349609,1.140625 1.2843,-0.0039 1.349609,-1.140625 1.349609,-1.140625 v -0.458984 c 1.186967,0.995206 2.711844,1.599609 4.550782,1.599609 4.754673,0 7.54378,-4.226903 7.5,-8.5 -0.04378,-4.273096 -2.210678,-8.5276585 -7.5,-8.4999995 -1.895711,0.00991 -3.398232,0.5334277 -4.550782,1.4003906 v -6.53125 C 49.861519,2.4729682 49.793937,1.3335783 48.5,1.3302793 Z m 5.900391,8.9687497 c 3.159667,-0.0093 4.724608,3.131764 4.677734,5.800781 -0.04687,2.669019 -1.642389,5.791145 -4.677734,5.800781 -3.035345,0.0096 -4.561306,-3.009829 -4.550391,-5.800781 0.01091,-2.790952 1.390724,-5.791451 4.550391,-5.800781 z" />
  <path d="M 69.05,8.7398105 V 23.45981 c 0,0 -0.0657,1.136094 -1.35,1.14 -1.284295,0.0039 -1.35,-1.14 -1.35,-1.14 V 8.7398105 c 0,0 0.186494,-1.14 1.35,-1.14 1.163506,0 1.35,1.14 1.35,1.14 z" />
  <path d="m 74.45,2.4698105 c 0,0 0.05606,-1.1432987 1.35,-1.14 1.293937,0.0033 1.36191,1.1440297 1.35,1.1400126 V 23.45981 c 0,0 -0.0657,1.136094 -1.35,1.14 -1.284295,0.0039 -1.35,-1.14 -1.35,-1.14 z" />
  <path d="m 97.122177,16.84131 c -0.304345,0.265823 -1.361,0.309 -1.361,0.309 L 84.7,17.14981 c -0.702445,-3.1e-5 0.842982,4.562868 4.8,4.75 2.422021,0.02916 3.472463,-1.089794 4.683,-2.379999 0,0 0.689751,-0.467188 1.553572,-0.026 0.686831,0.350791 0.725318,1.402722 0.693438,1.39 -1.312219,1.912633 -3.578823,3.713174 -6.93001,3.716001 -5.049975,-0.135395 -8.000509,-4.778404 -7.9,-8.550001 -0.124489,-3.282928 2.742506,-8.3999887 7.9,-8.4499995 5.402972,-0.1948018 8.450165,5.1512065 8.218823,8.1234995 0,0 -0.01369,0.759306 -0.596646,1.117999 z M 94.637,14.449811 c 0.529233,0 -0.994603,-4.198704 -5.137,-4.15 -3.482546,0.04095 -5.315894,4.156145 -4.8,4.15 z" />
  <path fill="#dfeaf7" d="m 67.7,1.3298105 c 2.287155,0.023401 2.247128,3.3964831 0,3.39 -2.247128,-0.00648 -2.287155,-3.4134011 0,-3.39 z" />
</g>
<g stroke-opacity="0.7" stroke-width="1.3" stroke="#fc0526" fill="#f7c8d5">
  <path d="m 103.84451,2.4298105 c 0,0 0.31009,-1.0826115 1.47949,-1.1 1.1694,-0.017389 1.50538,1.0980081 1.47949,1.1 V 23.80081 c 0.011,0 -0.61714,0.798973 -1.47932,0.799 -0.86218,2.7e-5 -1.47966,-0.799 -1.47966,-0.799 z" />
  <path d="m 112.492,2.03 c 0.40424,-0.4017738 1.09,-0.4 1.09,-0.4 0,0 4.41964,0.044372 6.1425,0.099994 0,0 9.11427,0.138985 9.2035,11.320006 0.0916,11.48247 -9.3045,11.35 -9.3045,11.35 -2.92233,0.138349 -6.2415,0.100189 -6.2415,0.100189 -0.0102,-0.0076 -0.44181,-0.01694 -0.832,-0.395378 -0.39019,-0.378443 -0.458,-0.997 -0.458,-0.997 V 3.115 c 0,0 -0.004,-0.6832261 0.4,-1.085 z m 2.559,2.67 v 16.56 c 0.004,0.415219 0.0293,0.360905 3.781,0.289999 0,0 7.31624,0.187162 7.124,-8.499999 C 125.76376,4.3628391 119.51422,4.6337223 118.96363,4.6260061 116.06418,4.5853716 115.05356,4.4891271 115.051,4.7 Z" />
</g>
</svg>