<svg width="200" height="50" xmlns="http://www.w3.org/2000/svg" xmlns:svg="http://www.w3.org/2000/svg">
 <defs>
  <filter height="200%" width="200%" y="-50%" x="-50%" id="svg_4_blur">
   <feGaussianBlur stdDeviation="1.3"/>
  </filter>
 </defs>
 <g>
  <title>Mobile ID Logo</title>
  <rect fill="#4c4a4a" x="0" y="0" width="200" height="50" id="svg_11"/>
  <g id="svg_1" filter="url(#svg_4_blur)" font-weight="normal" font-size="30px" font-family="Sans-serif" text-anchor="end" fill="#ffffff" stroke="#ffffff">
   <path id="svg_2" d="m30.1,14.3l4.7,0l6.3,16.1l6.3,-16.1l4.7,0l0,22.2l-2.8,0l0,-19.9l-6.7,17.4l-3,0l-6.7,-17.4l0,19.9l-2.8,0l0,-22.2z"/>
   <path id="svg_3" d="m64.2041,21.9834q-2.16797,0 -3.42773,1.69922q-1.25977,1.68457 -1.25977,4.6289q0,2.94434 1.24512,4.64356q1.25976,1.68457 3.44238,1.68457q2.15332,0 3.41309,-1.69922q1.25976,-1.69922 1.25976,-4.62891q0,-2.91504 -1.25976,-4.61425q-1.25977,-1.71387 -3.41309,-1.71387zm0,-2.28516q3.51563,0 5.52246,2.28516q2.00684,2.28516 2.00684,6.32812q0,4.02832 -2.00684,6.32813q-2.00683,2.28515 -5.52246,2.28515q-3.53027,0 -5.53711,-2.28515q-1.99219,-2.29981 -1.99219,-6.32813q0,-4.04296 1.99219,-6.32812q2.00684,-2.28516 5.53711,-2.28516z"/>
   <path id="svg_4" d="m87.96387,28.31152c0,-1.98242 -0.41016,-3.53515 -1.23047,-4.6582c-0.81055,-1.13281 -1.92871,-1.69922 -3.35449,-1.69922c-1.42579,0 -2.54883,0.56641 -3.36914,1.69922c-0.81055,1.12305 -1.21582,2.67578 -1.21582,4.6582c0,1.98243 0.40527,3.54005 1.21582,4.67286c0.82031,1.12305 1.94335,1.68457 3.36914,1.68457c1.42578,0 2.54394,-0.56152 3.35449,-1.68457c0.82031,-1.13281 1.23047,-2.69043 1.23047,-4.67286zm-9.14836,-6.9348c1.64105,-1.52273 3.0297,-1.72985 4.76986,-1.74315c1.99219,0 4.06112,0.85569 5.30135,2.43772c1.25,1.58203 1.875,3.66211 1.875,6.24023c0,2.57813 -0.64656,4.80911 -1.89656,6.39115c-1.24023,1.58202 -2.85644,2.37304 -4.84863,2.37304c-2.04061,0.07633 -4.20857,-0.6673 -5.2657,-2.08809l0.04312,1.51238l-2.70997,0l0,-22.79297l2.70997,0l0.02156,7.66969z"/>
   <path id="svg_5" d="m95.22949,20.09375l2.69531,0l0,16.40625l-2.69531,0l0,-16.40625zm0,-6.38672l2.69531,0l0,3.41309l-2.69531,0l0,-3.41309z"/>
   <path id="svg_6" d="m103.54981,13.70703l2.69531,0l0,22.79297l-2.69531,0l0,-22.79297z"/>
   <path id="svg_7" d="m125.90332,27.62305l0,1.31836l-12.39258,0q0.17578,2.7832 1.66992,4.24804q1.50879,1.4502 4.18946,1.4502q1.55273,0 3.00293,-0.38086q1.46484,-0.38086 2.90039,-1.14258l0,2.54883q-1.4502,0.61523 -2.97363,0.9375q-1.52344,0.32226 -3.09083,0.32226q-3.92578,0 -6.22558,-2.28515q-2.28516,-2.28516 -2.28516,-6.18164q0,-4.02832 2.16797,-6.38672q2.18262,-2.37305 5.87402,-2.37305q3.31055,0 5.2295,2.13867q1.93359,2.12403 1.93359,5.78614zm-2.69531,-0.79102q-0.0293,-2.21191 -1.24512,-3.53027q-1.20117,-1.31836 -3.19336,-1.31836q-2.25586,0 -3.61816,1.27441q-1.34766,1.27442 -1.55274,3.58887l9.60938,-0.01465z"/>
  </g>
  <g id="svg_1" font-weight="normal" font-size="30px" font-family="Sans-serif" text-anchor="end" fill="#c8d5f7" stroke="#2343fc" stroke-width="1.3" stroke-opacity="0.7">
   <path id="svg_2" d="m28.85,13.05l4.7,0l6.3,16.1l6.3,-16.1l4.7,0l0,22.2l-2.8,0l0,-19.9l-6.7,17.4l-3,0l-6.7,-17.4l0,19.9l-2.8,0l0,-22.2z"/>
   <path id="svg_3" d="m62.9541,20.7334q-2.16797,0 -3.42773,1.69922q-1.25977,1.68457 -1.25977,4.6289q0,2.94434 1.24512,4.64356q1.25976,1.68457 3.44238,1.68457q2.15332,0 3.41309,-1.69922q1.25976,-1.69922 1.25976,-4.62891q0,-2.91504 -1.25976,-4.61425q-1.25977,-1.71387 -3.41309,-1.71387zm0,-2.28516q3.51563,0 5.52246,2.28516q2.00684,2.28516 2.00684,6.32812q0,4.02832 -2.00684,6.32813q-2.00683,2.28515 -5.52246,2.28515q-3.53027,0 -5.53711,-2.28515q-1.99219,-2.29981 -1.99219,-6.32813q0,-4.04296 1.99219,-6.32812q2.00684,-2.28516 5.53711,-2.28516z"/>
   <path id="svg_4" d="m86.71387,27.06152c0,-1.98242 -0.41016,-3.53515 -1.23047,-4.6582c-0.81055,-1.13281 -1.92871,-1.69922 -3.35449,-1.69922c-1.42579,0 -2.54883,0.56641 -3.36914,1.69922c-0.81055,1.12305 -1.21582,2.67578 -1.21582,4.6582c0,1.98243 0.40527,3.54005 1.21582,4.67286c0.82031,1.12305 1.94335,1.68457 3.36914,1.68457c1.42578,0 2.54394,-0.56152 3.35449,-1.68457c0.82031,-1.13281 1.23047,-2.69043 1.23047,-4.67286zm-9.14836,-6.9348c1.64105,-1.52273 3.0297,-1.72985 4.76986,-1.74315c1.99219,0 4.06112,0.85569 5.30135,2.43772c1.25,1.58203 1.875,3.66211 1.875,6.24023c0,2.57813 -0.64656,4.80911 -1.89656,6.39115c-1.24023,1.58202 -2.85644,2.37304 -4.84863,2.37304c-2.04061,0.07633 -4.20857,-0.6673 -5.2657,-2.08809l0.04312,1.51238l-2.70997,0l0,-22.79297l2.70997,0l0.02156,7.66969z"/>
   <path id="svg_5" d="m93.97949,18.84375l2.69531,0l0,16.40625l-2.69531,0l0,-16.40625zm0,-6.38672l2.69531,0l0,3.41309l-2.69531,0l0,-3.41309z"/>
   <path id="svg_6" d="m102.29981,12.45703l2.69531,0l0,22.79297l-2.69531,0l0,-22.79297z"/>
   <path id="svg_7" d="m124.65332,26.37305l0,1.31836l-12.39258,0q0.17578,2.7832 1.66992,4.24804q1.50879,1.4502 4.18946,1.4502q1.55273,0 3.00293,-0.38086q1.46484,-0.38086 2.90039,-1.14258l0,2.54883q-1.4502,0.61523 -2.97363,0.9375q-1.52344,0.32226 -3.09083,0.32226q-3.92578,0 -6.22558,-2.28515q-2.28516,-2.28516 -2.28516,-6.18164q0,-4.02832 2.16797,-6.38672q2.18262,-2.37305 5.87402,-2.37305q3.31055,0 5.2295,2.13867q1.93359,2.12403 1.93359,5.78614zm-2.69531,-0.79102q-0.0293,-2.21191 -1.24512,-3.53027q-1.20117,-1.31836 -3.19336,-1.31836q-2.25586,0 -3.61816,1.27441q-1.34766,1.27442 -1.55274,3.58887l9.60938,-0.01465z"/>
  </g>
  <g id="svg_8" font-weight="normal" font-size="30px" font-family="Sans-serif" text-anchor="start" fill="#f7c8d5" stroke="#fc0526" stroke-width="1.3" stroke-opacity="0.7">
   <path id="svg_9" d="m132.44434,14.23l2.95898,0l0,22.77l-2.95898,0l0,-22.77z"/>
   <path id="svg_10" d="m144.251,16.762l0,17.706l3.574,0c3.01757,0 5.22451,-1.08323 6.621,-2.45042c1.40625,-1.36719 1.71,-3.52539 1.71,-6.47461c0,-2.92969 -0.30375,-5.07324 -1.71,-6.43067c-1.39649,-1.36718 -3.60343,-2.3503 -6.621,-2.3503l-3.574,0zm-6.533,-2.532l6.079,0c4.6114,0 7.46514,1.26484 9.231,3.05125c1.98242,1.75781 2.3735,4.51175 2.3735,8.26175c0,3.76953 -0.39681,6.53842 -2.389,8.306c1.58181,1.76758 -1.07782,3.151 -5.6415,3.151l-6.079,0l-3.574,-22.77z"/>
  </g>
 </g>
</svg>
