<svg width="104" height="62" xmlns="http://www.w3.org/2000/svg" xmlns:svg="http://www.w3.org/2000/svg">
 <defs>
  <linearGradient x2="1" x1="0" id="goldenPillar">
   <stop stop-color="#080808" offset="0"/>
   <stop stop-color="#aea616" offset="0.1"/>
   <stop stop-color="#ece22a" offset="0.3"/>
   <stop stop-color="#ffffff" offset="0.4"/>
   <stop stop-color="#ffffff" offset="0.6"/>
   <stop stop-color="#ece22a" offset="0.7"/>
   <stop stop-color="#aea616" offset="0.9"/>
   <stop stop-color="#080808" offset="1"/>
  </linearGradient>
  <filter height="1.18839" y="-0.09419" width="1.0445" x="-0.02225" id="textGlow" color-interpolation-filters="sRGB">
   <feGaussianBlur id="feGaussianBlur852" stdDeviation="0.71244"/>
  </filter>
 </defs>
 <g>
  <title>French e-government logotype</title>
  <rect x="14" y="20.70001" width="70" height="31.5" id="rect18" fill="white" />
  <rect x="13.19999" y="20.70001" width="11" height="31.5" id="rect22" fill="url(#goldenPillar)"/>
  <rect x="34.86003" y="20.70001" width="11" height="31.5" id="rect26" fill="url(#goldenPillar)"/>
  <rect x="56.53003" y="20.70001" width="11" height="31.5" id="rect30" fill="url(#goldenPillar)"/>
  <rect x="78.20004" y="20.70001" width="11" height="31.5" id="rect32" fill="url(#goldenPillar)"/>
  <path d="m6.2,15.70002l45,-15l45,15" id="path34" stroke-linecap="round" stroke-width="0.78902" stroke="#808080" fill="#e0e0e0"/>
  <rect x="6.09451" y="16.09452" width="90.21098" height="6.21098" id="rect36" stroke-width="0.78902" stroke="#808080" fill="#f2f2f2"/>
  <rect x="6.11701" y="52.61704" width="90.16595" height="4.16597" id="rect40" stroke-width="0.83403" stroke="#808080" fill="#f2f2f2"/>
  <rect x="1.11698" y="56.61698" width="100.16604" height="4.16604" id="rect38" stroke-width="0.83396" stroke="#808080" fill="#f2f2f2"/>
  <g id="g843" filter="url(#textGlow)" stroke-miterlimit="4" stroke-width="2.5" stroke="#ffffff" fill="#fbfbff">
   <path d="m29.62645,44.89755c-1.125,0.54687 -2.29297,0.95703 -3.5039,1.23047c-1.21094,0.27343 -2.46094,0.41015 -3.75,0.41015c-2.91407,0 -5.22266,-0.8125 -6.92578,-2.4375c-1.70313,-1.63281 -2.55469,-3.84375 -2.55469,-6.63281c0,-2.82031 0.86719,-5.03906 2.60156,-6.65625c1.73438,-1.61719 4.10938,-2.42578 7.125,-2.42578c1.16406,0 2.27734,0.10937 3.33984,0.32812c1.07032,0.21875 2.07813,0.54297 3.02344,0.97266l0,3.62109c-0.97656,-0.55468 -1.94922,-0.96875 -2.91797,-1.24218c-0.96093,-0.27344 -1.92578,-0.41016 -2.89453,-0.41016c-1.79687,0 -3.18359,0.50391 -4.16015,1.51172c-0.96875,1 -1.45313,2.43359 -1.45313,4.30078c0,1.85156 0.46875,3.28125 1.40625,4.28906c0.9375,1.00781 2.26953,1.51172 3.99609,1.51172c0.46875,0 0.90235,-0.02734 1.30079,-0.08203c0.40625,-0.0625 0.76953,-0.15625 1.08984,-0.28125l0,-3.39844l-2.75391,0l0,-3.02344l7.03125,0l0,8.41407z" id="path835" stroke-miterlimit="4" stroke-width="2.5" stroke="#ffffff" fill="#fbfbff"/>
   <path d="m41.57958,31.65536c-1.375,0 -2.44141,0.50781 -3.19922,1.52344c-0.75781,1.01562 -1.13672,2.44531 -1.13672,4.28906c0,1.83594 0.37891,3.26172 1.13672,4.27734c0.75781,1.01563 1.82422,1.52344 3.19922,1.52344c1.38281,0 2.45312,-0.50781 3.21094,-1.52344c0.75781,-1.01562 1.13671,-2.4414 1.13671,-4.27734c0,-1.84375 -0.3789,-3.27344 -1.13671,-4.28906c-0.75782,-1.01563 -1.82813,-1.52344 -3.21094,-1.52344zm0,-3.26953c2.8125,0 5.01562,0.80469 6.60937,2.41406c1.59375,1.60938 2.39063,3.83203 2.39063,6.66797c0,2.82812 -0.79688,5.04687 -2.39063,6.65625c-1.59375,1.60937 -3.79687,2.41406 -6.60937,2.41406c-2.80469,0 -5.00781,-0.80469 -6.60938,-2.41406c-1.59375,-1.60938 -2.39062,-3.82813 -2.39062,-6.65625c0,-2.83594 0.79687,-5.05859 2.39062,-6.66797c1.60157,-1.60937 3.80469,-2.41406 6.60938,-2.41406z" id="path837" stroke-miterlimit="4" stroke-width="2.5" stroke="#ffffff" fill="#fbfbff"/>
   <path d="m53.97802,28.70223l4.51171,0l0,10.48829c0,1.44531 0.23438,2.48046 0.70313,3.10546c0.47656,0.61719 1.25,0.92579 2.32031,0.92579c1.07813,0 1.85156,-0.3086 2.32031,-0.92579c0.47657,-0.625 0.70107,-1.66022 0.71485,-3.10546l0,-10.48829l4.51172,0l0,10.48829c0,2.47656 -0.6211,4.32031 -1.86328,5.53125c-1.24219,1.21093 -3.13672,1.8164 -5.6836,1.8164c-2.53906,0 -4.42969,-0.60547 -5.67187,-1.8164c-1.24219,-1.21094 -1.8869,-3.0548 -1.86328,-5.53125l0,-10.48829z" id="path839" stroke-miterlimit="4" stroke-width="2.5" stroke="#ffffff" fill="#fbfbff"/>
   <path d="m71.39208,28.70223l4.53515,0l4.64063,12.91407l4.62891,-12.91407l4.53515,0l-6.48047,17.4961l-5.3789,0l-6.48047,-17.4961z" id="path841" stroke-miterlimit="4" stroke-width="2.5" stroke="#ffffff" fill="#fbfbff"/>
  </g>
  <g id="g22" stroke-width="1.8" stroke="#46a82d" fill="#e7fbe7">
   <path id="path834" d="m29.62645,44.89755c-1.125,0.54687 -2.29297,0.95703 -3.5039,1.23047c-1.21094,0.27343 -2.46094,0.41015 -3.75,0.41015c-2.91407,0 -5.22266,-0.8125 -6.92578,-2.4375c-1.70313,-1.63281 -2.55469,-3.84375 -2.55469,-6.63281c0,-2.82031 0.86719,-5.03906 2.60156,-6.65625c1.73438,-1.61719 4.10938,-2.42578 7.125,-2.42578c1.16406,0 2.27734,0.10937 3.33984,0.32812c1.07032,0.21875 2.07813,0.54297 3.02344,0.97266l0,3.62109c-0.97656,-0.55468 -1.94922,-0.96875 -2.91797,-1.24218c-0.96093,-0.27344 -1.92578,-0.41016 -2.89453,-0.41016c-1.79687,0 -3.18359,0.50391 -4.16015,1.51172c-0.96875,1 -1.45313,2.43359 -1.45313,4.30078c0,1.85156 0.46875,3.28125 1.40625,4.28906c0.9375,1.00781 2.26953,1.51172 3.99609,1.51172c0.46875,0 0.90235,-0.02734 1.30079,-0.08203c0.40625,-0.0625 0.76953,-0.15625 1.08984,-0.28125l0,-3.39844l-2.75391,0l0,-3.02344l7.03125,0l0,8.41407z" stroke="#46a82d" fill="#e7fbe7"/>
   <path id="path836" d="m41.57958,31.65536c-1.375,0 -2.44141,0.50781 -3.19922,1.52344c-0.75781,1.01562 -1.13672,2.44531 -1.13672,4.28906c0,1.83594 0.37891,3.26172 1.13672,4.27734c0.75781,1.01563 1.82422,1.52344 3.19922,1.52344c1.38281,0 2.45312,-0.50781 3.21094,-1.52344c0.75781,-1.01562 1.13671,-2.4414 1.13671,-4.27734c0,-1.84375 -0.3789,-3.27344 -1.13671,-4.28906c-0.75782,-1.01563 -1.82813,-1.52344 -3.21094,-1.52344zm0,-3.26953c2.8125,0 5.01562,0.80469 6.60937,2.41406c1.59375,1.60938 2.39063,3.83203 2.39063,6.66797c0,2.82812 -0.79688,5.04687 -2.39063,6.65625c-1.59375,1.60937 -3.79687,2.41406 -6.60937,2.41406c-2.80469,0 -5.00781,-0.80469 -6.60938,-2.41406c-1.59375,-1.60938 -2.39062,-3.82813 -2.39062,-6.65625c0,-2.83594 0.79687,-5.05859 2.39062,-6.66797c1.60157,-1.60937 3.80469,-2.41406 6.60938,-2.41406z" stroke="#46a82d" fill="#e7fbe7"/>
   <path id="path838" d="m53.97802,28.70223l4.51171,0l0,10.48829c0,1.44531 0.23438,2.48046 0.70313,3.10546c0.47656,0.61719 1.25,0.92579 2.32031,0.92579c1.07813,0 1.85156,-0.3086 2.32031,-0.92579c0.47657,-0.625 0.70107,-1.66022 0.71485,-3.10546l0,-10.48829l4.51172,0l0,10.48829c0,2.47656 -0.6211,4.32031 -1.86328,5.53125c-1.24219,1.21093 -3.13672,1.8164 -5.6836,1.8164c-2.53906,0 -4.42969,-0.60547 -5.67187,-1.8164c-1.24219,-1.21094 -1.8869,-3.0548 -1.86328,-5.53125l0,-10.48829z" stroke="#46a82d" fill="#e7fbe7"/>
   <path id="path840" d="m71.39208,28.70223l4.53515,0l4.64063,12.91407l4.62891,-12.91407l4.53515,0l-6.48047,17.4961l-5.3789,0l-6.48047,-17.4961z" stroke="#46a82d" fill="#e7fbe7"/>
  </g>
  <rect y="5.29985" x="48.72215" height="8.6" width="4.5" id="rect883" stroke-miterlimit="4" stroke-linecap="round" stroke-width="0.36929" fill="#ffffff"/>
  <rect id="rect885" width="4.5" height="8.6" x="44.192" y="5.29984" stroke-miterlimit="4" stroke-linecap="round" stroke-width="0.36929" fill="#0000ff"/>
  <rect y="5.29984" x="53.243" height="8.6" width="4.5" id="rect841" stroke-miterlimit="4" stroke-linecap="round" stroke-width="0.36929" fill="#ff0000"/>
  <rect y="5.19169" x="44.259" height="8.90631" width="13.69426" id="rect861" stroke-miterlimit="4" stroke-linecap="round" stroke-width="0.5" stroke="#9e9ba6" fill="none"/>
 </g>
</svg>