<svg width="104" height="62" xmlns="http://www.w3.org/2000/svg">
 <defs>
  <linearGradient y2="0" y1="0" id="goldenPillar" x1="0" x2="1">
   <stop offset="0" stop-color="#38270b"/>
   <stop offset="0.1" stop-color="#c1ad45"/>
   <stop offset="0.2" stop-color="#d1c23e"/>
   <stop offset="0.33" stop-color="#eddb3b"/>
   <stop offset="0.45" stop-color="#ffffff"/>
   <stop offset="0.55" stop-color="#ffffff"/>
   <stop offset="0.67" stop-color="#eddb3b"/>
   <stop offset="0.8" stop-color="#d1c23e"/>
   <stop offset="0.9" stop-color="#c1ad45"/>
   <stop offset="1" stop-color="#38270b"/>
  </linearGradient>
  <filter height="1.18839" y="-0.09419" width="1.0445" x="-0.02225" id="textGlow" color-interpolation-filters="sRGB">
   <feGaussianBlur stdDeviation="0.71244"/>
  </filter>
 </defs>
 <g>
  <title>French e-government logotype</title>
  <rect x="14" y="20.70001" width="70" height="31.5" fill="white" />
  <rect x="13.19999" y="20.70001" width="11" height="31.5" fill="url(#goldenPillar)"/>
  <rect x="34.86003" y="20.70001" width="11" height="31.5" fill="url(#goldenPillar)"/>
  <rect x="56.53003" y="20.70001" width="11" height="31.5" fill="url(#goldenPillar)"/>
  <rect x="78.20004" y="20.70001" width="11" height="31.5" fill="url(#goldenPillar)"/>
  <path d="m6.2,15.70002l45,-15l45,15" stroke-linecap="round" stroke-width="0.78902" stroke="#808080" fill="#e0e0e0"/>
  <rect x="6.09451" y="16.09452" width="90.21098" height="6.21098" stroke-width="0.78902" stroke="#808080" fill="#f2f2f2"/>
  <rect x="6.11701" y="52.61704" width="90.16595" height="4.16597" stroke-width="0.83403" stroke="#808080" fill="#f2f2f2"/>
  <rect x="1.11698" y="56.61698" width="100.16604" height="4.16604" stroke-width="0.83396" stroke="#808080" fill="#f2f2f2"/>
  <g filter="url(#textGlow)" stroke-width="2.5" stroke="#ffffff" fill="none">
   <path d="m 26.626185,44.89755 c -1.125,0.54687 -2.29297,0.95703 -3.5039,1.23047 -1.21094,0.27343 -2.46094,0.41015 -3.75,0.41015 -2.91407,0 -5.22266,-0.8125 -6.92578,-2.4375 -1.70313,-1.63281 -2.55469,-3.84375 -2.55469,-6.63281 0,-2.82031 0.86719,-5.03906 2.60156,-6.65625 1.73438,-1.61719 4.10938,-2.42578 7.125,-2.42578 1.16406,0 2.27734,0.10937 3.33984,0.32812 1.07032,0.21875 2.07813,0.54297 3.02344,0.97266 v 3.62109 c -0.97656,-0.55468 -1.94922,-0.96875 -2.91797,-1.24218 -0.96093,-0.27344 -1.92578,-0.41016 -2.89453,-0.41016 -1.79687,0 -3.18359,0.50391 -4.16015,1.51172 -0.96875,1 -1.45313,2.43359 -1.45313,4.30078 0,1.85156 0.46875,3.28125 1.40625,4.28906 0.9375,1.00781 2.26953,1.51172 3.99609,1.51172 0.46875,0 0.90235,-0.02734 1.30079,-0.08203 0.40625,-0.0625 0.76953,-0.15625 1.08984,-0.28125 v -3.39844 h -2.75391 v -3.02344 h 7.03125 z"/>
   <path d="m 40.78,31.65536 c -1.375,0 -2.44141,0.50781 -3.19922,1.52344 -0.75781,1.01562 -1.13672,2.44531 -1.13672,4.28906 0,1.83594 0.37891,3.26172 1.13672,4.27734 0.75781,1.01563 1.82422,1.52344 3.19922,1.52344 1.38281,0 2.45312,-0.50781 3.21094,-1.52344 0.75781,-1.01562 1.13671,-2.4414 1.13671,-4.27734 0,-1.84375 -0.3789,-3.27344 -1.13671,-4.28906 C 43.23312,32.16317 42.16281,31.65536 40.78,31.65536 Z m 0,-3.26953 c 2.8125,0 5.01562,0.80469 6.60937,2.41406 1.59375,1.60938 2.39063,3.83203 2.39063,6.66797 0,2.82812 -0.79688,5.04687 -2.39063,6.65625 -1.59375,1.60937 -3.79687,2.41406 -6.60937,2.41406 -2.80469,0 -5.00781,-0.80469 -6.60938,-2.41406 C 32.57687,42.51473 31.78,40.29598 31.78,37.46786 c 0,-2.83594 0.79687,-5.05859 2.39062,-6.66797 1.60157,-1.60937 3.80469,-2.41406 6.60938,-2.41406 z"/>
   <path d="m 54.377985,28.70223 h 4.51171 v 10.48829 c 0,1.44531 0.23438,2.48046 0.70313,3.10546 0.47656,0.61719 1.25,0.92579 2.32031,0.92579 1.07813,0 1.85156,-0.3086 2.32031,-0.92579 0.47657,-0.625 0.70107,-1.66022 0.71485,-3.10546 V 28.70223 h 4.51172 v 10.48829 c 0,2.47656 -0.6211,4.32031 -1.86328,5.53125 -1.24219,1.21093 -3.13672,1.8164 -5.6836,1.8164 -2.53906,0 -4.42969,-0.60547 -5.67187,-1.8164 -1.24219,-1.21094 -1.8869,-3.0548 -1.86328,-5.53125 z"/>
   <path d="m 74.49208,28.70223 h 4.53515 l 4.64063,12.91407 4.62891,-12.91407 h 4.53515 l -6.48047,17.4961 h -5.3789 z"/>
  </g>
  <g stroke-width="1.8" stroke="#46a82d" fill="#e7fbe7">
   <path d="m 26.626185,44.89755 c -1.125,0.54687 -2.29297,0.95703 -3.5039,1.23047 -1.21094,0.27343 -2.46094,0.41015 -3.75,0.41015 -2.91407,0 -5.22266,-0.8125 -6.92578,-2.4375 -1.70313,-1.63281 -2.55469,-3.84375 -2.55469,-6.63281 0,-2.82031 0.86719,-5.03906 2.60156,-6.65625 1.73438,-1.61719 4.10938,-2.42578 7.125,-2.42578 1.16406,0 2.27734,0.10937 3.33984,0.32812 1.07032,0.21875 2.07813,0.54297 3.02344,0.97266 v 3.62109 c -0.97656,-0.55468 -1.94922,-0.96875 -2.91797,-1.24218 -0.96093,-0.27344 -1.92578,-0.41016 -2.89453,-0.41016 -1.79687,0 -3.18359,0.50391 -4.16015,1.51172 -0.96875,1 -1.45313,2.43359 -1.45313,4.30078 0,1.85156 0.46875,3.28125 1.40625,4.28906 0.9375,1.00781 2.26953,1.51172 3.99609,1.51172 0.46875,0 0.90235,-0.02734 1.30079,-0.08203 0.40625,-0.0625 0.76953,-0.15625 1.08984,-0.28125 v -3.39844 h -2.75391 v -3.02344 h 7.03125 z"/>
   <path d="m 40.78,31.65536 c -1.375,0 -2.44141,0.50781 -3.19922,1.52344 -0.75781,1.01562 -1.13672,2.44531 -1.13672,4.28906 0,1.83594 0.37891,3.26172 1.13672,4.27734 0.75781,1.01563 1.82422,1.52344 3.19922,1.52344 1.38281,0 2.45312,-0.50781 3.21094,-1.52344 0.75781,-1.01562 1.13671,-2.4414 1.13671,-4.27734 0,-1.84375 -0.3789,-3.27344 -1.13671,-4.28906 C 43.23312,32.16317 42.16281,31.65536 40.78,31.65536 Z m 0,-3.26953 c 2.8125,0 5.01562,0.80469 6.60937,2.41406 1.59375,1.60938 2.39063,3.83203 2.39063,6.66797 0,2.82812 -0.79688,5.04687 -2.39063,6.65625 -1.59375,1.60937 -3.79687,2.41406 -6.60937,2.41406 -2.80469,0 -5.00781,-0.80469 -6.60938,-2.41406 C 32.57687,42.51473 31.78,40.29598 31.78,37.46786 c 0,-2.83594 0.79687,-5.05859 2.39062,-6.66797 1.60157,-1.60937 3.80469,-2.41406 6.60938,-2.41406 z"/>
   <path d="m 54.377985,28.70223 h 4.51171 v 10.48829 c 0,1.44531 0.23438,2.48046 0.70313,3.10546 0.47656,0.61719 1.25,0.92579 2.32031,0.92579 1.07813,0 1.85156,-0.3086 2.32031,-0.92579 0.47657,-0.625 0.70107,-1.66022 0.71485,-3.10546 V 28.70223 h 4.51172 v 10.48829 c 0,2.47656 -0.6211,4.32031 -1.86328,5.53125 -1.24219,1.21093 -3.13672,1.8164 -5.6836,1.8164 -2.53906,0 -4.42969,-0.60547 -5.67187,-1.8164 -1.24219,-1.21094 -1.8869,-3.0548 -1.86328,-5.53125 z"/>
   <path d="m 74.49208,28.70223 h 4.53515 l 4.64063,12.91407 4.62891,-12.91407 h 4.53515 l -6.48047,17.4961 h -5.3789 z"/>
  </g>
  <rect y="5.29985" x="48.72215" height="8.6" width="4.5" fill="#ffffff"/>
  <rect width="4.5" height="8.6" x="44.192" y="5.29984" fill="#0000ff"/>
  <rect y="5.29984" x="53.243" height="8.6" width="4.5" fill="#ff0000"/>
  <rect y="5.19169" x="44.259" height="8.90631" width="13.69426" stroke-width="0.5" stroke="#9e9ba6" fill="none"/>
 </g>
</svg>
