<?xml version="1.0" encoding="UTF-8" standalone="no"?>
<svg
   xmlns:dc="http://purl.org/dc/elements/1.1/"
   xmlns:cc="http://creativecommons.org/ns#"
   xmlns:rdf="http://www.w3.org/1999/02/22-rdf-syntax-ns#"
   xmlns:svg="http://www.w3.org/2000/svg"
   xmlns="http://www.w3.org/2000/svg"
   width="104"
   height="62"
   version="1.1"
   id="svg42">
  <metadata
     id="metadata46">
    <rdf:RDF>
      <cc:Work
         rdf:about="">
        <dc:format>image/svg+xml</dc:format>
        <dc:type
           rdf:resource="http://purl.org/dc/dcmitype/StillImage" />
        <dc:title></dc:title>
      </cc:Work>
    </rdf:RDF>
  </metadata>
  <defs
     id="defs14">
    <linearGradient
       x2="1"
       x1="0"
       id="pillarEffect">
      <stop
         stop-color="#606060"
         offset="0"
         id="stop2" />
      <stop
         stop-color="#ffffff"
         offset="0.4"
         id="stop4" />
      <stop
         stop-color="#ffffff"
         offset="0.6"
         id="stop6" />
      <stop
         stop-color="#606060"
         offset="1"
         id="stop8" />
    </linearGradient>
    <filter
       style="color-interpolation-filters:sRGB"
       id="filter857"
       x="-0.029669666"
       width="1.0593393"
       y="-0.12559328"
       height="1.2511866">
      <feGaussianBlur
         stdDeviation="0.94992188"
         id="feGaussianBlur859" />
    </filter>
    <filter
       height="1.1883899"
       y="-0.094194964"
       width="1.0445045"
       x="-0.02225225"
       id="filter850"
       style="color-interpolation-filters:sRGB">
      <feGaussianBlur
         id="feGaussianBlur852"
         stdDeviation="0.71244141" />
    </filter>
    <filter
       height="1.1517461"
       y="-0.075873052"
       width="1.0986908"
       x="-0.049345382"
       id="filter1067"
       style="color-interpolation-filters:sRGB">
      <feGaussianBlur
         id="feGaussianBlur1069"
         stdDeviation="0.28156196" />
    </filter>
  </defs>
  <rect
     x="13.199994"
     y="20.700012"
     width="76"
     height="31.5"
     id="rect18"
     style="fill:#ffffff" />
  <rect
     x="13.199994"
     y="20.700012"
     width="11"
     height="31.5"
     id="rect22"
     style="fill:url(#pillarEffect)" />
  <rect
     x="34.860027"
     y="20.700012"
     width="11"
     height="31.5"
     id="rect26"
     style="fill:url(#pillarEffect)" />
  <rect
     x="56.530029"
     y="20.700012"
     width="11"
     height="31.5"
     id="rect30"
     style="fill:url(#pillarEffect)" />
  <rect
     x="78.200043"
     y="20.700012"
     width="11"
     height="31.5"
     id="rect32"
     style="fill:url(#pillarEffect)" />
  <path
     d="M 6.1999993,15.700016 51.2,0.70001582 96.2,15.700016"
     id="path34"
     style="fill:#e0e0e0;stroke:#404040;stroke-width:1;stroke-linecap:round" />
  <rect
     x="6.0945082"
     y="16.094524"
     width="90.210983"
     height="6.210979"
     id="rect36"
     style="fill:#f2f2f2;fill-opacity:1;stroke:#404040;stroke-width:0.78902084" />
  <rect
     x="6.117012"
     y="52.617035"
     width="90.165955"
     height="4.1659689"
     id="rect40"
     style="fill:#f2f2f2;stroke:#404040;stroke-width:0.83403116" />
  <rect
     x="1.1169809"
     y="56.616982"
     width="100.16604"
     height="4.166038"
     id="rect38"
     style="fill:#f2f2f2;stroke:#404040;stroke-width:0.83396178" />
  <g
     id="g843"
     style="fill:#fbfbff;fill-opacity:1;stroke:#ffffff;stroke-width:2.5;stroke-miterlimit:4;stroke-dasharray:none;stroke-opacity:1;filter:url(#filter850)">
    <path
       style="fill:#fbfbff;fill-opacity:1;stroke:#ffffff;stroke-width:2.5;stroke-miterlimit:4;stroke-dasharray:none;stroke-opacity:1"
       d="m 29.626453,44.897547 c -1.125,0.546875 -2.292969,0.957031 -3.503906,1.230468 -1.210937,0.273438 -2.460937,0.410157 -3.75,0.410157 -2.914063,0 -5.222656,-0.8125 -6.925781,-2.4375 -1.703125,-1.632813 -2.554688,-3.84375 -2.554688,-6.632813 0,-2.820313 0.867188,-5.039063 2.601563,-6.65625 1.734375,-1.617187 4.109375,-2.425781 7.125,-2.425781 1.164063,0 2.277344,0.109375 3.339844,0.328125 1.070312,0.21875 2.078124,0.542969 3.023437,0.972656 v 3.621094 c -0.976563,-0.554687 -1.949219,-0.96875 -2.917969,-1.242188 -0.960937,-0.273437 -1.925781,-0.410156 -2.894531,-0.410156 -1.796875,0 -3.183593,0.503906 -4.160156,1.511719 -0.96875,1 -1.453125,2.433594 -1.453125,4.300781 0,1.851563 0.46875,3.28125 1.40625,4.289063 0.9375,1.007812 2.269531,1.511718 3.996094,1.511718 0.46875,0 0.902344,-0.02734 1.300781,-0.08203 0.40625,-0.0625 0.769531,-0.15625 1.089844,-0.28125 v -3.398438 h -2.753907 v -3.023438 h 7.03125 z"
       id="path835" />
    <path
       style="fill:#fbfbff;fill-opacity:1;stroke:#ffffff;stroke-width:2.5;stroke-miterlimit:4;stroke-dasharray:none;stroke-opacity:1"
       d="m 41.579578,31.655359 c -1.375,0 -2.441406,0.507813 -3.199218,1.523438 -0.757813,1.015625 -1.136719,2.445312 -1.136719,4.289062 0,1.835937 0.378906,3.261719 1.136719,4.277344 0.757812,1.015625 1.824218,1.523437 3.199218,1.523437 1.382813,0 2.453125,-0.507812 3.210938,-1.523437 0.757813,-1.015625 1.136719,-2.441407 1.136719,-4.277344 0,-1.84375 -0.378906,-3.273437 -1.136719,-4.289062 -0.757813,-1.015625 -1.828125,-1.523438 -3.210938,-1.523438 z m 0,-3.269531 c 2.8125,0 5.015625,0.804687 6.609375,2.414062 1.59375,1.609375 2.390625,3.832032 2.390625,6.667969 0,2.828125 -0.796875,5.046875 -2.390625,6.65625 -1.59375,1.609375 -3.796875,2.414063 -6.609375,2.414063 -2.804687,0 -5.007812,-0.804688 -6.609375,-2.414063 -1.59375,-1.609375 -2.390625,-3.828125 -2.390625,-6.65625 0,-2.835937 0.796875,-5.058594 2.390625,-6.667969 1.601563,-1.609375 3.804688,-2.414062 6.609375,-2.414062 z"
       id="path837" />
    <path
       style="fill:#fbfbff;fill-opacity:1;stroke:#ffffff;stroke-width:2.5;stroke-miterlimit:4;stroke-dasharray:none;stroke-opacity:1"
       d="m 53.978016,28.702234 h 4.511719 v 10.488281 c 0,1.445313 0.234375,2.480469 0.703125,3.105469 0.476562,0.617187 1.249999,0.925781 2.320312,0.925781 1.078125,0 1.851563,-0.308594 2.320313,-0.925781 0.476562,-0.625 0.701063,-1.660222 0.714843,-3.105469 V 28.702234 h 4.511719 v 10.488281 c 0,2.476563 -0.621094,4.320313 -1.863281,5.53125 -1.242187,1.210938 -3.136719,1.816407 -5.683594,1.816407 -2.539063,0 -4.429688,-0.605469 -5.671875,-1.816407 -1.242187,-1.210937 -1.886893,-3.0548 -1.863281,-5.53125 z"
       id="path839" />
    <path
       style="fill:#fbfbff;fill-opacity:1;stroke:#ffffff;stroke-width:2.5;stroke-miterlimit:4;stroke-dasharray:none;stroke-opacity:1"
       d="m 71.392078,28.702234 h 4.535157 l 4.640625,12.914063 4.628906,-12.914063 h 4.535156 l -6.480469,17.496094 h -5.378906 z"
       id="path841" />
  </g>
  <g
     style="fill:#e7fbe7;fill-opacity:1;stroke:#46a82d;stroke-width:1.79999995;stroke-opacity:1"
     id="g22">
    <path
       id="path834"
       d="m 29.626453,44.897547 c -1.125,0.546875 -2.292969,0.957031 -3.503906,1.230468 -1.210937,0.273438 -2.460937,0.410157 -3.75,0.410157 -2.914063,0 -5.222656,-0.8125 -6.925781,-2.4375 -1.703125,-1.632813 -2.554688,-3.84375 -2.554688,-6.632813 0,-2.820313 0.867188,-5.039063 2.601563,-6.65625 1.734375,-1.617187 4.109375,-2.425781 7.125,-2.425781 1.164063,0 2.277344,0.109375 3.339844,0.328125 1.070312,0.21875 2.078124,0.542969 3.023437,0.972656 v 3.621094 c -0.976563,-0.554687 -1.949219,-0.96875 -2.917969,-1.242188 -0.960937,-0.273437 -1.925781,-0.410156 -2.894531,-0.410156 -1.796875,0 -3.183593,0.503906 -4.160156,1.511719 -0.96875,1 -1.453125,2.433594 -1.453125,4.300781 0,1.851563 0.46875,3.28125 1.40625,4.289063 0.9375,1.007812 2.269531,1.511718 3.996094,1.511718 0.46875,0 0.902344,-0.02734 1.300781,-0.08203 0.40625,-0.0625 0.769531,-0.15625 1.089844,-0.28125 v -3.398438 h -2.753907 v -3.023438 h 7.03125 z"
       style="fill:#e7fbe7;fill-opacity:1;stroke:#46a82d;stroke-opacity:1" />
    <path
       id="path836"
       d="m 41.579578,31.655359 c -1.375,0 -2.441406,0.507813 -3.199218,1.523438 -0.757813,1.015625 -1.136719,2.445312 -1.136719,4.289062 0,1.835937 0.378906,3.261719 1.136719,4.277344 0.757812,1.015625 1.824218,1.523437 3.199218,1.523437 1.382813,0 2.453125,-0.507812 3.210938,-1.523437 0.757813,-1.015625 1.136719,-2.441407 1.136719,-4.277344 0,-1.84375 -0.378906,-3.273437 -1.136719,-4.289062 -0.757813,-1.015625 -1.828125,-1.523438 -3.210938,-1.523438 z m 0,-3.269531 c 2.8125,0 5.015625,0.804687 6.609375,2.414062 1.59375,1.609375 2.390625,3.832032 2.390625,6.667969 0,2.828125 -0.796875,5.046875 -2.390625,6.65625 -1.59375,1.609375 -3.796875,2.414063 -6.609375,2.414063 -2.804687,0 -5.007812,-0.804688 -6.609375,-2.414063 -1.59375,-1.609375 -2.390625,-3.828125 -2.390625,-6.65625 0,-2.835937 0.796875,-5.058594 2.390625,-6.667969 1.601563,-1.609375 3.804688,-2.414062 6.609375,-2.414062 z"
       style="fill:#e7fbe7;fill-opacity:1;stroke:#46a82d;stroke-opacity:1" />
    <path
       id="path838"
       d="m 53.978016,28.702234 h 4.511719 v 10.488281 c 0,1.445313 0.234375,2.480469 0.703125,3.105469 0.476562,0.617187 1.249999,0.925781 2.320312,0.925781 1.078125,0 1.851563,-0.308594 2.320313,-0.925781 0.476562,-0.625 0.701063,-1.660222 0.714843,-3.105469 V 28.702234 h 4.511719 v 10.488281 c 0,2.476563 -0.621094,4.320313 -1.863281,5.53125 -1.242187,1.210938 -3.136719,1.816407 -5.683594,1.816407 -2.539063,0 -4.429688,-0.605469 -5.671875,-1.816407 -1.242187,-1.210937 -1.886893,-3.0548 -1.863281,-5.53125 z"
       style="fill:#e7fbe7;fill-opacity:1;stroke:#46a82d;stroke-opacity:1" />
    <path
       id="path840"
       d="m 71.392078,28.702234 h 4.535157 l 4.640625,12.914063 4.628906,-12.914063 h 4.535156 l -6.480469,17.496094 h -5.378906 z"
       style="fill:#e7fbe7;fill-opacity:1;stroke:#46a82d;stroke-opacity:1" />
  </g>
  <rect
     y="5.2998457"
     x="48.722149"
     height="8.6000004"
     width="4.5"
     id="rect883"
     style="opacity:1;fill:#ffffff;fill-opacity:1;stroke:none;stroke-width:0.36928707;stroke-linecap:round;stroke-miterlimit:4;stroke-dasharray:none;stroke-opacity:1" />
  <rect
     transform="matrix(1.0903077,0,0,1.126728,-4.5121672,-1.2753079)"
     style="opacity:1;fill:#fffbfd;fill-opacity:1;stroke:none;stroke-width:0.72399998;stroke-linecap:round;stroke-miterlimit:4;stroke-dasharray:none;stroke-opacity:1;filter:url(#filter1067)"
     id="rect844"
     width="13.694264"
     height="8.9063072"
     x="44.258999"
     y="5.1916928" />
  <rect
     style="opacity:1;fill:#0000ff;fill-opacity:1;stroke:none;stroke-width:0.36928713;stroke-linecap:round;stroke-miterlimit:4;stroke-dasharray:none;stroke-opacity:1"
     id="rect885"
     width="4.5"
     height="8.6000004"
     x="44.192001"
     y="5.2998438" />
  <rect
     y="5.2998438"
     x="53.243"
     height="8.6000004"
     width="4.5"
     id="rect841"
     style="opacity:1;fill:#ff0000;fill-opacity:1;stroke:none;stroke-width:0.36928716;stroke-linecap:round;stroke-miterlimit:4;stroke-dasharray:none;stroke-opacity:1" />
  <rect
     y="5.1916928"
     x="44.258999"
     height="8.9063072"
     width="13.694264"
     id="rect861"
     style="opacity:1;fill:none;fill-opacity:1;stroke:#9e9ba6;stroke-width:0.724;stroke-linecap:round;stroke-miterlimit:4;stroke-dasharray:none;stroke-opacity:1" />
</svg>
