<svg width="140.932" height="45.894541" xmlns="http://www.w3.org/2000/svg" xmlns:svg="http://www.w3.org/2000/svg">
  <metadata id="metadata2998">image/svg+xmlimage/svg+xml</metadata>
  <g>
    <title>Layer 1</title>
    <path stroke-miterlimit="4" d="m40.61708,22.5902a18.97794,18.97794 0 1 1 -37.95588,0a18.97794,18.97794 0 1 1 37.95588,0z" id="path5238" stroke-linecap="round" stroke-width="0" stroke="#000000" fill-rule="nonzero" fill="#d40000"/>
    <path stroke-miterlimit="4" d="m37.54428,22.74178a15.80255,15.80255 0 1 1 -31.6051,0a15.80255,15.80255 0 1 1 31.6051,0z" id="path3778" stroke-linecap="round" stroke-width="0" stroke="#ffffff" fill-rule="nonzero" fill="#ffff00"/>
    <path stroke-miterlimit="4" d="m27.15583,36.77577l17.39142,-18.28441l-34.687,13.85324l23.17623,10.50678l-24.20661,-27.94403l-3.06772,24.77796l19.72649,-31.1236l-25.07219,4.80683l36.39825,8.70859l-12.42774,-21.80717l2.76886,36.50581l0.00001,0z" id="path3782" stroke-linecap="round" stroke-width="0" stroke="#000000" fill-rule="nonzero" fill="#89a02c"/>
    <g id="svg_1" stroke-width="0" stroke="#183c8b" fill="#262ec9" text-anchor="middle" font-family="&#x27;Bookman Old Style'" font-size="33px" font-weight="normal" font-style="normal">
      <path d="m62.24432,29.41137l1.03125,0.83789q-1.17627,1.40186 -2.28809,2.22363q-1.0957,0.82178 -2.07861,1.14405q-0.98291,0.33837 -2.3042,0.33837q-2.36865,0 -4.02832,-0.96679q-1.90137,-1.11182 -2.91651,-2.90039q-1.01513,-1.78858 -1.01513,-4.22168q0,-2.5459 0.98291,-4.35059q0.98291,-1.80469 2.73926,-2.83594q1.77246,-1.04736 4.09277,-1.04736q1.72412,0 2.99707,0.54785q1.27295,0.53174 2.15918,1.62744q0.88623,1.07959 1.28906,2.48145q0.22559,0.82178 0.25781,2.12695l-11.39209,0q-0.04834,0.78955 -0.04834,1.17627q0,2.03028 0.70899,3.62549q0.70898,1.5791 1.86914,2.33643q1.17627,0.74121 2.65869,0.74121q1.25684,0 2.43311,-0.58008q1.17627,-0.59619 2.85205,-2.3042zm-2.0625,-6.50977q-0.2417,-1.48242 -0.69287,-2.1914q-0.43506,-0.70899 -1.25684,-1.12793q-0.80566,-0.41895 -1.8208,-0.41895q-1.01514,0 -1.90137,0.41895q-0.88623,0.41894 -1.48242,1.16015q-0.58008,0.74121 -1.01514,2.15918l8.16944,0z" id="path4538" stroke-width="0" stroke="#183c8b" fill="#262ec9"/>
      <path d="m66.20818,24.36791l9.57129,0l0,1.99805l-9.57129,0l0,-1.99805z" id="path4540" stroke-width="0" stroke="#183c8b" fill="#262ec9"/>
      <path d="m96.90398,11.09057l1.17627,0l1.83692,6.92871l-1.4502,0.49951q-1.45019,-3.28711 -3.33545,-4.68896q-1.88525,-1.40186 -4.27002,-1.40186q-3.43213,0 -5.75244,2.85205q-2.32031,2.85205 -2.32031,6.79981q0,2.83593 1.17627,5.20459q1.19238,2.36865 3.17432,3.60937q1.98193,1.24072 4.20556,1.24072q1.43408,0 2.72315,-0.51562q1.30517,-0.53174 2.11084,-1.25684q0.59619,-0.54785 0.80566,-1.20849q0.20947,-0.66065 0.19336,-1.83692l0,-1.06347q0,-1.27295 -0.30615,-1.80469q-0.29004,-0.53174 -0.83789,-0.75733q-0.41895,-0.17724 -2.25586,-0.17724l0,-1.35352l9.12011,0l0,1.35352l-0.74121,0q-0.95068,0 -1.30517,0.19336q-0.33838,0.17724 -0.49951,0.56396q-0.16114,0.38672 -0.16114,1.51465l0,7.78272l-1.59521,0l-0.85401,-1.96582q-1.35351,0.98291 -2.88427,1.53076q-2.28809,0.82177 -4.52784,0.82177q-4.52783,0 -7.7666,-3.31933q-3.22265,-3.33545 -3.22265,-8.29834q0,-4.93067 3.27099,-8.28223q3.271,-3.35156 7.83106,-3.35156q1.14404,0 2.25586,0.22559q1.11181,0.22558 2.03027,0.64453q0.69287,0.30615 1.61133,0.99902l0.56396,-1.48242z" id="path4542" stroke-width="0" stroke="#183c8b" fill="#262ec9"/>
      <path d="m113.37176,17.63256q2.36865,0 4.09277,0.98291q1.74024,0.98291 2.73926,2.86816q0.99902,1.88526 0.99902,4.30225q0,2.41699 -1.03125,4.30225q-1.01513,1.88525 -2.7876,2.88427q-1.75634,0.98291 -4.20556,0.98291q-3.89942,0 -5.86524,-2.4331q-1.9497,-2.43311 -1.9497,-5.72022q0,-2.40087 1.01513,-4.2539q1.01514,-1.86914 2.83594,-2.88428q1.83692,-1.03125 4.15723,-1.03125zm-0.12891,1.56299q-1.83691,0 -3.10986,1.45019q-1.61133,1.80469 -1.61133,5.25293q0,3.31934 1.36963,5.05957q1.24072,1.54688 3.36767,1.54688q1.36963,0 2.43311,-0.7251q1.07959,-0.7251 1.74023,-2.3042q0.66065,-1.59521 0.66065,-3.73828q0,-2.09473 -0.70899,-3.75439q-0.54785,-1.32129 -1.65966,-2.04639q-1.09571,-0.74121 -2.48145,-0.74121z" id="path4544" stroke-width="0" stroke="#183c8b" fill="#262ec9"/>
      <path d="m122.54021,18.01928l7.37989,0l0,1.35351l-0.45117,0q-0.91846,0 -1.14405,0.06446q-0.32226,0.09667 -0.4834,0.30615q-0.16113,0.20947 -0.16113,0.49951q0,0.40283 0.35449,1.30517l3.67383,9.16846l3.56104,-9.16846q0.33838,-0.88623 0.33838,-1.28906q0,-0.41894 -0.32227,-0.64453q-0.32227,-0.2417 -1.16016,-0.2417l-0.77343,0l0,-1.35351l6.36474,0l0,1.35351q-0.66064,0.01611 -1.11181,0.20947q-0.43506,0.19336 -0.69288,0.49952q-0.24169,0.30615 -0.74121,1.4663l-5.14013,12.02051l-1.9336,0l-5.17236,-12.29443q-0.32227,-0.75733 -0.70898,-1.24072q-0.25782,-0.30616 -0.69288,-0.4834q-0.41894,-0.17725 -0.98291,-0.17725l0,-1.35351z" id="path4546" stroke-width="0" stroke="#183c8b" fill="#262ec9"/>
    </g>
  </g>
</svg>