<svg width="104" height="62" xmlns="http://www.w3.org/2000/svg">
 <defs>
  <linearGradient y2="0" y1="0" id="goldenPillar" x1="0" x2="1">
   <stop offset="0" stop-color="#38270b"/>
   <stop offset="0.1" stop-color="#c1ad45"/>
   <stop offset="0.2" stop-color="#d1c23e"/>
   <stop offset="0.33" stop-color="#eddb3b"/>
   <stop offset="0.45" stop-color="#ffffff"/>
   <stop offset="0.55" stop-color="#ffffff"/>
   <stop offset="0.67" stop-color="#eddb3b"/>
   <stop offset="0.8" stop-color="#d1c23e"/>
   <stop offset="0.9" stop-color="#c1ad45"/>
   <stop offset="1" stop-color="#38270b"/>
  </linearGradient>
  <filter height="1.18839" y="-0.09419" width="1.0445" x="-0.02225" id="textGlow" color-interpolation-filters="sRGB">
   <feGaussianBlur stdDeviation="0.71244"/>
  </filter>
 </defs>
 <g>
  <title>default e-government logotype</title>
  <rect x="14" y="20.70001" width="70" height="31.5" fill="white" />
  <rect x="13.19999" y="20.70001" width="11" height="31.5" fill="url(#goldenPillar)"/>
  <rect x="34.86003" y="20.70001" width="11" height="31.5" fill="url(#goldenPillar)"/>
  <rect x="56.53003" y="20.70001" width="11" height="31.5" fill="url(#goldenPillar)"/>
  <rect x="78.20004" y="20.70001" width="11" height="31.5" fill="url(#goldenPillar)"/>
  <path d="m6.2,15.70002l45,-15l45,15" stroke-linecap="round" stroke-width="0.78902" stroke="#808080" fill="#e0e0e0"/>
  <rect x="6.09451" y="16.09452" width="90.21098" height="6.21098" stroke-width="0.78902" stroke="#808080" fill="#f2f2f2"/>
  <rect x="6.11701" y="52.61704" width="90.16595" height="4.16597" stroke-width="0.83403" stroke="#808080" fill="#f2f2f2"/>
  <rect x="1.11698" y="56.61698" width="100.16604" height="4.16604" stroke-width="0.83396" stroke="#808080" fill="#f2f2f2"/>
  <g filter="url(#textGlow)" stroke-width="2.5" stroke="#ffffff" fill="none">
    <path d="m 25.482968,39.373672 v 1.195313 h -9.808594 c 0.101563,0.984375 0.457032,1.722656 1.066407,2.214843 0.609375,0.492188 1.460937,0.738282 2.554687,0.738282 0.882813,0 1.785156,-0.128906 2.707031,-0.386719 0.929688,-0.265625 1.882813,-0.664063 2.859375,-1.195313 v 3.234375 c -0.992187,0.375 -1.984375,0.65625 -2.976562,0.84375 -0.992187,0.195313 -1.984375,0.292969 -2.976563,0.292969 -2.375,0 -4.222656,-0.601562 -5.542968,-1.804687 -1.3125,-1.210938 -1.96875,-2.906251 -1.96875,-5.085938 0,-2.140625 0.644531,-3.824218 1.933593,-5.050781 1.296875,-1.226563 3.078125,-1.839844 5.34375,-1.839844 2.0625,0 3.710938,0.621094 4.945313,1.863281 1.242187,1.242188 1.690031,2.909578 1.863281,4.980469 z m -4.3125,-1.394531 c 0,-0.796875 -0.234375,-1.4375 -0.703125,-1.921875 -0.460937,-0.492187 -1.066406,-0.738281 -1.816406,-0.738281 -0.8125,0 -1.472656,0.230469 -1.980469,0.691406 -0.507813,0.453125 -0.824219,1.109375 -0.949219,1.96875 z" />
    <path d="m 48.545187,44.670547 c -1.125,0.546875 -2.292969,0.957032 -3.503906,1.230469 -1.210937,0.273437 -2.460937,0.410156 -3.75,0.410156 -2.914063,0 -5.222656,-0.8125 -6.925781,-2.4375 -1.703125,-1.632813 -2.554688,-3.84375 -2.554688,-6.632812 0,-2.820313 0.867188,-5.039063 2.601563,-6.65625 1.734375,-1.617188 4.109375,-2.425782 7.125,-2.425782 1.164062,0 2.277343,0.109375 3.339843,0.328125 1.070313,0.21875 2.078125,0.542969 3.023438,0.972657 v 3.621093 c -0.976563,-0.554687 -1.949219,-0.96875 -2.917969,-1.242187 -0.960937,-0.273437 -1.925781,-0.410156 -2.894531,-0.410156 -1.796875,0 -3.183594,0.503906 -4.160156,1.511718 -0.96875,1 -1.453125,2.433594 -1.453125,4.300782 0,1.851562 0.46875,3.281249 1.40625,4.289062 0.9375,1.007813 2.269531,1.511719 3.996093,1.511719 0.46875,0 0.902344,-0.02734 1.300782,-0.08203 0.40625,-0.0625 0.769531,-0.15625 1.089843,-0.28125 v -3.398439 h -2.753906 v -3.023437 h 7.03125 z" />
    <path d="m 62.264578,35.529922 c -0.929687,0 -1.640625,0.335938 -2.132812,1.007813 -0.484375,0.664062 -0.726563,1.624999 -0.726563,2.882812 0,1.257813 0.242188,2.222656 0.726563,2.894531 0.492187,0.664063 1.203125,0.996094 2.132812,0.996094 0.914063,0 1.613282,-0.332031 2.097657,-0.996094 0.484375,-0.671875 0.726562,-1.636718 0.726562,-2.894531 0,-1.257813 -0.242187,-2.21875 -0.726562,-2.882812 -0.484375,-0.671875 -1.183594,-1.007813 -2.097657,-1.007813 z m 0,-3 c 2.257813,0 4.019532,0.609375 5.285157,1.828125 1.273437,1.21875 1.910156,2.90625 1.910156,5.0625 0,2.15625 -0.636719,3.84375 -1.910156,5.0625 -1.265625,1.21875 -3.027344,1.828125 -5.285157,1.828125 -2.265625,0 -4.039062,-0.609375 -5.320312,-1.828125 -1.273437,-1.21875 -1.910156,-2.90625 -1.910156,-5.0625 0,-2.15625 0.636719,-3.84375 1.910156,-5.0625 1.28125,-1.21875 3.054687,-1.828125 5.320312,-1.828125 z" />
    <path d="m 76.266156,32.846328 h 4.195312 l 3.269532,9.070313 3.257812,-9.070313 h 4.207031 l -5.167968,13.125 h -4.605469 z" />
  </g>
  <g stroke-width="1.8" stroke="#46a82d" fill="#e7fbe7">
    <path d="m 25.482968,39.373672 v 1.195313 h -9.808594 c 0.101563,0.984375 0.457032,1.722656 1.066407,2.214843 0.609375,0.492188 1.460937,0.738282 2.554687,0.738282 0.882813,0 1.785156,-0.128906 2.707031,-0.386719 0.929688,-0.265625 1.882813,-0.664063 2.859375,-1.195313 v 3.234375 c -0.992187,0.375 -1.984375,0.65625 -2.976562,0.84375 -0.992187,0.195313 -1.984375,0.292969 -2.976563,0.292969 -2.375,0 -4.222656,-0.601562 -5.542968,-1.804687 -1.3125,-1.210938 -1.96875,-2.906251 -1.96875,-5.085938 0,-2.140625 0.644531,-3.824218 1.933593,-5.050781 1.296875,-1.226563 3.078125,-1.839844 5.34375,-1.839844 2.0625,0 3.710938,0.621094 4.945313,1.863281 1.242187,1.242188 1.690031,2.909578 1.863281,4.980469 z m -4.3125,-1.394531 c 0,-0.796875 -0.234375,-1.4375 -0.703125,-1.921875 -0.460937,-0.492187 -1.066406,-0.738281 -1.816406,-0.738281 -0.8125,0 -1.472656,0.230469 -1.980469,0.691406 -0.507813,0.453125 -0.824219,1.109375 -0.949219,1.96875 z" />
    <path d="m 48.545187,44.670547 c -1.125,0.546875 -2.292969,0.957032 -3.503906,1.230469 -1.210937,0.273437 -2.460937,0.410156 -3.75,0.410156 -2.914063,0 -5.222656,-0.8125 -6.925781,-2.4375 -1.703125,-1.632813 -2.554688,-3.84375 -2.554688,-6.632812 0,-2.820313 0.867188,-5.039063 2.601563,-6.65625 1.734375,-1.617188 4.109375,-2.425782 7.125,-2.425782 1.164062,0 2.277343,0.109375 3.339843,0.328125 1.070313,0.21875 2.078125,0.542969 3.023438,0.972657 v 3.621093 c -0.976563,-0.554687 -1.949219,-0.96875 -2.917969,-1.242187 -0.960937,-0.273437 -1.925781,-0.410156 -2.894531,-0.410156 -1.796875,0 -3.183594,0.503906 -4.160156,1.511718 -0.96875,1 -1.453125,2.433594 -1.453125,4.300782 0,1.851562 0.46875,3.281249 1.40625,4.289062 0.9375,1.007813 2.269531,1.511719 3.996093,1.511719 0.46875,0 0.902344,-0.02734 1.300782,-0.08203 0.40625,-0.0625 0.769531,-0.15625 1.089843,-0.28125 v -3.398439 h -2.753906 v -3.023437 h 7.03125 z" />
    <path d="m 62.264578,35.529922 c -0.929687,0 -1.640625,0.335938 -2.132812,1.007813 -0.484375,0.664062 -0.726563,1.624999 -0.726563,2.882812 0,1.257813 0.242188,2.222656 0.726563,2.894531 0.492187,0.664063 1.203125,0.996094 2.132812,0.996094 0.914063,0 1.613282,-0.332031 2.097657,-0.996094 0.484375,-0.671875 0.726562,-1.636718 0.726562,-2.894531 0,-1.257813 -0.242187,-2.21875 -0.726562,-2.882812 -0.484375,-0.671875 -1.183594,-1.007813 -2.097657,-1.007813 z m 0,-3 c 2.257813,0 4.019532,0.609375 5.285157,1.828125 1.273437,1.21875 1.910156,2.90625 1.910156,5.0625 0,2.15625 -0.636719,3.84375 -1.910156,5.0625 -1.265625,1.21875 -3.027344,1.828125 -5.285157,1.828125 -2.265625,0 -4.039062,-0.609375 -5.320312,-1.828125 -1.273437,-1.21875 -1.910156,-2.90625 -1.910156,-5.0625 0,-2.15625 0.636719,-3.84375 1.910156,-5.0625 1.28125,-1.21875 3.054687,-1.828125 5.320312,-1.828125 z" />
    <path d="m 76.266156,32.846328 h 4.195312 l 3.269532,9.070313 3.257812,-9.070313 h 4.207031 l -5.167968,13.125 h -4.605469 z" />
  </g>
 </g>
</svg>
