<svg width="26" height="40" xmlns="http://www.w3.org/2000/svg" xmlns:svg="http://www.w3.org/2000/svg">
 <defs>
  <linearGradient y2="1" x2="1" y1="0" x1="0" spreadMethod="pad" id="doorEffect">
   <stop offset="0" stop-color="#efe1a2"/>
   <stop offset="0.5" stop-color="#f9f5d1"/>
   <stop offset="1" stop-color="#efe1a2"/>
  </linearGradient>
 </defs>
 <g>
  <title>Logout Icon</title>
  <path d="m16.53768,21.09072l0,11.20111c0,1.32246 -1.20264,2.38712 -2.69651,2.38712l-9.16,0c-1.49387,0 -2.69651,-1.06466 -2.69651,-2.38712l0,-25.00244c0,-1.32246 1.20264,-2.38711 2.69651,-2.38711l9.16,0c1.49387,0 2.69651,1.06465 2.69651,2.38711l0,6.15033" stroke-width="1.5" stroke="#4f7afc" fill="none"/>
  <path d="m2.6,6.20014l10.00014,4.69972l0,27.5l-10.00014,-4.69972" stroke-linecap="round" stroke-width="0.7" stroke="#717270" fill="url(#doorEffect)"/>
  <path d="m20.5,12.7l3.70536,4.6m-9.40503,0l9.41134,0.01677m0,0.00023l-3.81167,4.583" stroke-linecap="round" stroke-width="1.5" stroke="#ff0000" fill="none"/>
 </g>
</svg>
