<svg viewBox="0 0 402 174" xmlns="http://www.w3.org/2000/svg" xmlns:xlink="http://www.w3.org/1999/xlink">
<defs>
<filter id="actorsBlur" x="-25%" y="-25%" width="150%" height="150%">
<feGaussianBlur stdDeviation="3"/>
</filter>
</defs>
<a xlink:href="javascript:addDigit('0')">
<rect x="1" y="1" width="56" height="48" fill="#ffffff"/>
<rect x="7" y="7" width="44" height="36" stroke="#969191" stroke-width="1" fill="#a5a5a5" rx="10" ry="10"/>
<rect x="9" y="9" width="40" height="32" fill="#fcfcfc" rx="9" ry="9" filter="url(#actorsBlur)"/>
<path d="m 35.746094,26.801758 q 0,3.668945 -1.688477,5.573242 -1.675781,1.891602 -4.544922,1.891602 -2.894531,0 -4.583008,-1.891602 -1.688476,-1.904297 -1.688476,-5.573242 v -4.075196 q 0,-3.65625 1.675781,-5.560546 1.688477,-1.916993 4.570313,-1.916993 2.86914,0 4.557617,1.916993 1.701172,1.904296 1.701172,5.560546 z m -3.694336,-4.456055 q 0,-2.196289 -0.660156,-3.211914 -0.660157,-1.02832 -1.904297,-1.02832 -1.256836,0 -1.904297,1.015625 -0.647461,1.015625 -0.647461,3.224609 v 4.811524 q 0,2.234375 0.647461,3.25 0.660156,1.015625 1.929687,1.015625 1.244141,0 1.891602,-1.015625 0.647461,-1.015625 0.647461,-3.25 z" />
</a>
<a xlink:href="javascript:addDigit('1')">
<rect x="81" y="1" width="56" height="48" fill="#ffffff"/>
<rect x="87" y="7" width="44" height="36" stroke="#969191" stroke-width="1" fill="#a5a5a5" rx="10" ry="10"/>
<rect x="89" y="9" width="40" height="32" fill="#fcfcfc" rx="9" ry="9" filter="url(#actorsBlur)"/>
<path d="m 111.6709,34 h -3.70703 V 18.791016 h -3.75782 v -2.615235 l 7.46485,-0.660156 z" />
</a>
<a xlink:href="javascript:addDigit('2')">
<rect x="161" y="1" width="56" height="48" fill="#ffffff"/>
<rect x="167" y="7" width="44" height="36" stroke="#969191" stroke-width="1" fill="#a5a5a5" rx="10" ry="10"/>
<rect x="169" y="9" width="40" height="32" fill="#fcfcfc" rx="9" ry="9" filter="url(#actorsBlur)"/>
<path d="m 195.91113,34 h -12.61914 v -2.424805 l 5.97949,-6.411133 q 1.29493,-1.485351 1.84082,-2.500976 0.5459,-1.02832 0.5459,-1.904297 0,-1.167969 -0.63476,-1.904297 -0.62207,-0.749023 -1.77735,-0.749023 -1.28222,0 -1.95507,0.875976 -0.66016,0.863282 -0.66016,2.310547 h -3.60547 L 183,21.21582 q -0.0635,-2.500976 1.6377,-4.227539 1.71386,-1.739258 4.60839,-1.739258 2.85645,0 4.48145,1.485352 1.63769,1.485352 1.63769,3.960937 0,1.675782 -0.92675,3.097657 -0.91407,1.409179 -3.03418,3.707031 l -3.28809,3.592773 0.0254,0.06348 h 7.76953 z" />
</a>
<a xlink:href="javascript:addDigit('3')">
<rect x="241" y="1" width="56" height="48" fill="#ffffff"/>
<rect x="247" y="7" width="44" height="36" stroke="#969191" stroke-width="1" fill="#a5a5a5" rx="10" ry="10"/>
<rect x="249" y="9" width="40" height="32" fill="#fcfcfc" rx="9" ry="9" filter="url(#actorsBlur)"/>
<path d="m 267.03711,23.183594 h 2.08203 q 1.32031,0 1.95508,-0.685547 0.63476,-0.698242 0.63476,-1.929688 0,-1.117187 -0.63476,-1.790039 -0.63477,-0.672851 -1.84082,-0.672851 -1.04102,0 -1.75195,0.609375 -0.71094,0.609375 -0.71094,1.599609 h -3.59278 l -0.0254,-0.07617 q -0.0762,-2.170898 1.66309,-3.580078 1.73926,-1.40918 4.31641,-1.40918 2.86914,0 4.57031,1.371094 1.71387,1.371094 1.71387,3.910156 0,1.206055 -0.76172,2.297852 -0.76172,1.079102 -2.09473,1.688477 1.53613,0.545898 2.33594,1.675781 0.8125,1.129883 0.8125,2.627929 0,2.539063 -1.85352,3.999024 -1.84082,1.447266 -4.72265,1.447266 -2.57715,0 -4.43067,-1.358399 -1.84082,-1.371094 -1.77734,-3.859375 l 0.0254,-0.07617 h 3.59277 q 0,1.066406 0.76172,1.764649 0.76172,0.685547 1.92969,0.685547 1.28222,0 2.01855,-0.710938 0.74903,-0.710937 0.74903,-1.929687 0,-1.459961 -0.73633,-2.132813 -0.72363,-0.685547 -2.14551,-0.685547 h -2.08203 z" />
</a>
<a xlink:href="javascript:addDigit('4')">
<rect x="1" y="63" width="56" height="48" fill="#ffffff"/>
<rect x="7" y="69" width="44" height="36" stroke="#969191" stroke-width="1" fill="#a5a5a5" rx="10" ry="10"/>
<rect x="9" y="71" width="40" height="32" fill="#fcfcfc" rx="9" ry="9" filter="url(#actorsBlur)"/>
<path d="m 34.15918,89.119141 h 2.094726 v 2.86914 H 34.15918 V 96 h -3.694336 v -4.011719 h -7.541016 l -0.165039,-2.221679 7.667969,-12.250977 h 3.732422 z m -7.947266,0 h 4.25293 v -6.652344 l -0.07617,-0.02539 -0.291992,0.520508 z" />
</a>
<a xlink:href="javascript:addDigit('5')">
<rect x="81" y="63" width="56" height="48" fill="#ffffff"/>
<rect x="87" y="69" width="44" height="36" stroke="#969191" stroke-width="1" fill="#a5a5a5" rx="10" ry="10"/>
<rect x="89" y="71" width="40" height="32" fill="#fcfcfc" rx="9" ry="9" filter="url(#actorsBlur)"/>
<path d="m 103.76172,87.811523 1.06641,-10.295898 h 10.30859 v 2.970703 h -7.27442 l -0.50781,4.265625 q 0.50781,-0.380859 1.23145,-0.62207 0.72363,-0.253906 1.59961,-0.266602 2.66601,-0.03809 4.12597,1.612305 1.47266,1.650391 1.47266,4.595703 0,2.666016 -1.6123,4.430664 -1.59961,1.764649 -4.6211,1.764649 -2.55176,0 -4.36719,-1.38379 -1.81543,-1.396484 -1.75195,-3.833984 l 0.0254,-0.06348 3.56738,-0.177735 q 0,1.231445 0.69825,1.929688 0.69824,0.685547 1.82812,0.685547 1.29492,0 1.9043,-0.914063 0.62207,-0.926758 0.62207,-2.412109 0,-1.59961 -0.66016,-2.564453 -0.66015,-0.964844 -1.95508,-0.964844 -1.0664,0 -1.63769,0.393554 -0.55859,0.393555 -0.79981,1.066407 z" />
</a>
<a xlink:href="javascript:addDigit('6')">
<rect x="161" y="63" width="56" height="48" fill="#ffffff"/>
<rect x="167" y="69" width="44" height="36" stroke="#969191" stroke-width="1" fill="#a5a5a5" rx="10" ry="10"/>
<rect x="169" y="71" width="40" height="32" fill="#fcfcfc" rx="9" ry="9" filter="url(#actorsBlur)"/>
<path d="m 190.71875,77.249023 q 1.04102,0 1.91699,0.203125 0.88867,0.19043 1.77735,0.571289 l -0.66016,2.716797 q -0.83789,-0.291992 -1.49805,-0.43164 -0.64746,-0.152344 -1.51074,-0.152344 -1.68848,0 -2.7168,1.269531 -1.01562,1.256836 -0.93945,3.491211 l 0.0381,0.06348 q 0.62207,-0.647461 1.57422,-1.015625 0.95214,-0.368164 2.1455,-0.368164 2.47559,0 3.87207,1.764648 1.40918,1.751953 1.40918,4.481445 0,2.792969 -1.73925,4.608399 -1.72657,1.81543 -4.48145,1.81543 -2.93262,0 -4.77344,-1.980469 Q 183.292,92.292972 183.292,88.77637 v -3.605469 q 0,-3.630859 2.09473,-5.776367 2.09473,-2.145508 5.33203,-2.145508 z m -0.85059,9.153321 q -1.02832,0 -1.75195,0.330078 -0.72363,0.330078 -1.11719,0.901367 v 1.231445 q 0,2.196289 0.78711,3.376953 0.79981,1.180665 2.12012,1.180665 1.14258,0 1.82812,-1.041016 0.69825,-1.053711 0.69825,-2.539063 0,-1.536132 -0.69825,-2.488281 -0.69824,-0.952148 -1.86621,-0.952148 z" />
</a>
<a xlink:href="javascript:addDigit('7')">
<rect x="1" y="125" width="56" height="48" fill="#ffffff"/>
<rect x="7" y="131" width="44" height="36" stroke="#969191" stroke-width="1" fill="#a5a5a5" rx="10" ry="10"/>
<rect x="9" y="133" width="40" height="32" fill="#fcfcfc" rx="9" ry="9" filter="url(#actorsBlur)"/>
<path d="m 35.860352,142.37207 q -2.970704,3.47852 -4.0625,6.4873 -1.079102,3.00879 -1.548829,7.26172 L 30.071289,158 h -3.707031 l 0.177734,-1.87891 q 0.431641,-4.07519 1.853516,-7.47754 1.421875,-3.41503 3.897461,-6.27148 h -9.496094 v -2.85645 h 13.063477 z" />
</a>
<a xlink:href="javascript:addDigit('8')">
<rect x="81" y="125" width="56" height="48" fill="#ffffff"/>
<rect x="87" y="131" width="44" height="36" stroke="#969191" stroke-width="1" fill="#a5a5a5" rx="10" ry="10"/>
<rect x="89" y="133" width="40" height="32" fill="#fcfcfc" rx="9" ry="9" filter="url(#actorsBlur)"/>
<path d="m 115.36523,144.41602 q 0,1.38378 -0.73632,2.45019 -0.72364,1.06641 -2.00586,1.66309 1.47265,0.62207 2.32324,1.77734 0.85059,1.15527 0.85059,2.64063 0,2.56445 -1.73926,3.94824 -1.73926,1.37109 -4.54492,1.37109 -2.83106,0 -4.58301,-1.37109 -1.73926,-1.38379 -1.73926,-3.94824 0,-1.49805 0.83789,-2.64063 0.85059,-1.15527 2.33594,-1.79004 -1.29492,-0.59668 -2.01856,-1.65039 -0.72363,-1.06641 -0.72363,-2.45019 0,-2.4629 1.61231,-3.8086 1.6123,-1.3584 4.25292,-1.3584 2.62793,0 4.25293,1.3584 1.625,1.3457 1.625,3.8086 z m -3.27539,8.27734 q 0,-1.24414 -0.72363,-1.99316 -0.72363,-0.74903 -1.87891,-0.74903 -1.16796,0 -1.8789,0.74903 -0.69824,0.74902 -0.69824,1.99316 0,1.26953 0.71093,2.00586 0.71094,0.72363 1.89161,0.72363 1.15527,0 1.86621,-0.73633 0.71093,-0.73632 0.71093,-1.99316 z m -0.41894,-8.11231 q 0,-1.11718 -0.59668,-1.79003 -0.58399,-0.68555 -1.58692,-0.68555 -1.01562,0 -1.58691,0.67285 -0.57129,0.66016 -0.57129,1.80273 0,1.15528 0.57129,1.84082 0.58399,0.67286 1.61231,0.67286 1.00293,0 1.57421,-0.67286 0.58399,-0.68554 0.58399,-1.84082 z" />
</a>
<a xlink:href="javascript:addDigit('9')">
<rect x="161" y="125" width="56" height="48" fill="#ffffff"/>
<rect x="167" y="131" width="44" height="36" stroke="#969191" stroke-width="1" fill="#a5a5a5" rx="10" ry="10"/>
<rect x="169" y="133" width="40" height="32" fill="#fcfcfc" rx="9" ry="9" filter="url(#actorsBlur)"/>
<path d="m 188.63672,155.42285 q 1.45996,0 2.37402,-1.0791 0.92676,-1.0918 0.92676,-3.11035 v -0.91406 q -0.62207,0.78711 -1.48535,1.19336 -0.85059,0.40625 -1.84082,0.40625 -2.57715,0 -4.0625,-1.67579 -1.47266,-1.68847 -1.47266,-4.55761 0,-2.76758 1.75195,-4.59571 1.75196,-1.84082 4.45606,-1.84082 2.83105,0 4.5957,1.95508 1.76465,1.94238 1.76465,5.47168 v 4.36719 q 0,3.36426 -1.98047,5.29394 -1.96777,1.92969 -5.02734,1.92969 -0.96485,0 -1.99317,-0.20312 -1.01562,-0.19043 -1.8916,-0.57129 l 0.43164,-2.67871 q 0.8252,0.31738 1.625,0.46972 0.8125,0.13965 1.82813,0.13965 z m 0.59668,-6.2207 q 0.91406,0 1.59961,-0.34278 0.68554,-0.34277 1.10449,-0.91406 v -1.70117 q 0,-2.03125 -0.71094,-3.08496 -0.71094,-1.05371 -1.92969,-1.05371 -1.11718,0 -1.82812,1.04101 -0.69824,1.04102 -0.69824,2.53907 0,1.57422 0.63476,2.55175 0.64746,0.96485 1.82813,0.96485 z" />
</a>
<a xlink:href="javascript:deleteDigit()">
<rect x="345" y="1" width="56" height="48" fill="#ffffff"/>
<rect x="351" y="7" width="44" height="36" stroke="#969191" stroke-width="1" fill="#a5a5a5" rx="10" ry="10"/>
<rect x="353" y="9" width="40" height="32" fill="#fcfcfc" rx="9" ry="9" filter="url(#actorsBlur)"/>
<path fill="#be1018" d="m 369.14941,25.061882 5.60303,8.745117 h -3.25195 l -6.48194,-8.547363 v -0.417481 l 6.48194,-8.547363 h 3.25195 z m 7.33887,0 5.60303,8.745117 h -3.25195 l -6.48194,-8.547363 v -0.417481 l 6.48194,-8.547363 h 3.25195 z" />
</a>
<a xlink:href="javascript:validatePin()">
<rect x="263" y="101" width="138" height="72" fill="#ffffff"/>
<rect x="269" y="107" width="126" height="60" stroke="#969191" stroke-width="1" fill="#a5a5a5" rx="10" ry="10"/>
<rect x="271" y="109" width="122" height="56" fill="#fcfcfc" rx="9" ry="9" filter="url(#actorsBlur)"/>
<g fill="#009900">
<path d="m 296.84766,141.08691 0.22851,1.00293 h 0.0762 l 0.21582,-0.97754 4.02442,-13.59667 h 3.91015 L 299.01855,146 h -3.80859 l -6.27148,-18.48437 h 3.91015 z" />
<path d="m 315.22754,146 q -0.20313,-0.46973 -0.35547,-0.99023 -0.13965,-0.52051 -0.20312,-1.06641 -0.57129,1.00293 -1.51075,1.66309 -0.92675,0.66015 -2.22168,0.66015 -2.1582,0 -3.32617,-1.10449 -1.16797,-1.11719 -1.16797,-3.03418 0,-2.01856 1.54883,-3.12305 1.56152,-1.11718 4.54492,-1.11718 h 2.06934 v -1.0918 q 0,-0.99024 -0.52051,-1.53613 -0.52051,-0.5459 -1.53613,-0.5459 -0.90137,0 -1.39649,0.44433 -0.48242,0.43164 -0.48242,1.20606 l -3.58008,-0.0127 -0.0127,-0.0762 q -0.0889,-1.73926 1.51074,-2.99609 1.59961,-1.26953 4.20215,-1.26953 2.46289,0 3.99902,1.25683 1.53614,1.24414 1.53614,3.55469 v 5.6748 q 0,0.96485 0.13964,1.81543 0.15235,0.85059 0.46973,1.68848 z m -3.38965,-2.47559 q 0.97754,0 1.73926,-0.48242 0.76172,-0.48242 1.02832,-1.11719 v -1.94238 h -2.06934 q -1.18066,0 -1.79004,0.59668 -0.60937,0.58399 -0.60937,1.42188 0,0.68554 0.45703,1.10449 0.45703,0.41894 1.24414,0.41894 z" />
<path d="m 326.02832,146 h -3.70703 v -19.80469 h 3.70703 z" />
<path d="m 333.98535,146 h -3.70703 v -13.73633 h 3.70703 z m 0,-17.02441 h -3.70703 v -2.78028 h 3.70703 z" />
<path d="m 337.47363,139.24609 q 0,-3.25 1.39649,-5.24316 1.40918,-1.99316 3.96093,-1.99316 1.02832,0 1.85352,0.44433 0.8252,0.44434 1.44727,1.26953 v -7.52832 h 3.71972 V 146 h -3.18652 l -0.30469,-1.67578 q -0.64746,0.95215 -1.53613,1.44726 -0.87598,0.49512 -2.01856,0.49512 -2.52636,0 -3.93554,-1.85351 -1.39649,-1.85352 -1.39649,-4.90039 z m 3.69434,0.26661 q 0,1.80273 0.60937,2.84375 0.60938,1.02832 1.98047,1.02832 0.79981,0 1.39649,-0.31739 0.59668,-0.33008 0.97754,-0.95215 v -5.85253 q -0.38086,-0.64747 -0.97754,-1.00293 -0.58399,-0.36817 -1.3711,-0.36817 -1.3584,0 -1.99316,1.20606 -0.62207,1.20605 -0.62207,3.14843 z" />
<path d="m 359.80176,146.2666 q -2.97071,0 -4.74805,-1.9043 -1.77734,-1.90429 -1.77734,-4.83691 v -0.50781 q 0,-3.05957 1.67578,-5.04004 1.68847,-1.98047 4.51953,-1.96777 2.78027,0 4.31641,1.67578 1.53613,1.67578 1.53613,4.53222 v 2.01856 h -8.20117 l -0.0254,0.0762 q 0.10156,1.3584 0.90136,2.23437 0.8125,0.87598 2.19629,0.87598 1.23145,0 2.04395,-0.24121 0.8125,-0.25391 1.77734,-0.78711 l 1.00293,2.28516 q -0.83789,0.68554 -2.19629,1.14258 -1.3584,0.44433 -3.02148,0.44433 z m -0.33008,-11.40039 q -1.02832,0 -1.625,0.78711 -0.59668,0.78711 -0.73633,2.06934 l 0.0381,0.0635 h 4.54492 v -0.33008 q 0,-1.18066 -0.55859,-1.8789 -0.5459,-0.71094 -1.66309,-0.71094 z" />
<path d="m 375.70605,135.4502 -1.35839,-0.0381 q -0.8252,0 -1.3584,0.34277 -0.53321,0.34278 -0.8125,0.96485 V 146 h -3.69434 v -13.73633 h 3.44043 l 0.16504,2.03125 q 0.48242,-1.0791 1.24414,-1.67578 0.77442,-0.60937 1.77734,-0.60937 0.2793,0 0.50782,0.0508 0.24121,0.0381 0.48242,0.10156 z" />
</g>
</a>
</svg>